<?xml version="1.0" standalone="no"?>
<!DOCTYPE svg PUBLIC "-//W3C//DTD SVG 1.1//EN"
  "http://www.w3.org/Graphics/SVG/1.1/DTD/svg11.dtd">
<svg version="1.1" xmlns="http://www.w3.org/2000/svg" xmlns:xlink="http://www.w3.org/1999/xlink" width="874" height="514" viewBox="81 103 874 514" id="ccdiagram"><filter id="grayscale"><feColorMatrix type="matrix" values="0.3333 0.3333 0.3333 0 0 0.3333 0.3333 0.3333 0 0 0.3333 0.3333 0.3333 0 0 0 0 0 1 0"></feColorMatrix></filter><defs><style type="text/css">@import url('https://fonts.googleapis.com/css?family=Open+Sans:400,700|Inconsolata:400');</style></defs><g><g pointer-events="auto"><g opacity="1"><g><g><polygon points="158 135, 450 135, 495 180, 495 540, 450 585, 158 585, 113 540, 113 180" fill="#8ed1fc" stroke-width="2" stroke="#818181"></polygon><polygon points="158 180, 450 180, 450 540, 158 540" fill="#ffffff" stroke-width="0" stroke="#818181"></polygon></g></g></g><g opacity="1"><g><g><polygon points="585 135, 878 135, 923 180, 923 540, 878 585, 585 585, 540 540, 540 180" fill="#f299b7" stroke-width="2" stroke="#818181"></polygon><polygon points="585 180, 878 180, 878 540, 585 540" fill="#ffffff" stroke-width="0" stroke="#818181"></polygon></g></g></g></g><g pointer-events="auto"></g><g></g><g pointer-events="auto"></g><g></g><g pointer-events="auto"></g><g pointer-events="none"></g><g pointer-events="auto"><g><g cursor="cell"><line x1="293" y1="360" x2="293" y2="450" stroke="red" stroke-width="8" opacity="0"></line><line x1="293" y1="360" x2="293" y2="450" stroke="#000000" stroke-width="2" stroke-linecap="round"></line></g></g><g><g cursor="cell"><line x1="720" y1="360" x2="720" y2="450" stroke="red" stroke-width="8" opacity="0"></line><line x1="720" y1="360" x2="720" y2="450" stroke="#000000" stroke-width="2" stroke-linecap="round"></line></g></g><g><g cursor="cell"><line x1="306" y1="360" x2="707" y2="360" stroke="red" stroke-width="8" opacity="0"></line><line x1="306" y1="360" x2="707" y2="360" stroke="#000000" stroke-width="2" stroke-linecap="round"></line><polygon points="293 360, 317 371, 310 360, 317 349, 293 360" stroke-linejoin="round" fill="#000000" stroke="#000000" stroke-width="1"></polygon><polygon points="720 360, 696 349, 702 360, 696 371, 720 360" stroke-linejoin="round" fill="#000000" stroke="#000000" stroke-width="1"></polygon></g></g></g><g pointer-events="auto"></g><g pointer-events="auto"></g><g pointer-events="auto"><g opacity="1"><g id="081bfe99-a78e-4f8a-b3f7-082e0b632ca5" transform="translate(0 0)"><svg x="293" y="360" overflow="visible"><g transform="scale(1.2074767078498865) "><circle cx="0" cy="0" fill="#ffffff" r="25"></circle><svg width="50" height="50" x="-25" y="-25"><svg xmlns="http://www.w3.org/2000/svg" viewBox="0 0 50 50"><g id="Working" fill="#d6242d"><path d="M7.94 31.62v-.83a19.8 19.8 0 0 1 39.55-1.35l-2 .13a17.8 17.8 0 0 0-35.57 1.22v.75z"></path><path d="M8.73 32.22v-1.31a16.49 16.49 0 0 1 6.55-13.07l.1-.07a18.34 18.34 0 0 1 9.3-2.51 17.61 17.61 0 0 1 17.05 12.43l-1.92.54a15.6 15.6 0 0 0-15.16-11 16.33 16.33 0 0 0-8.23 2.2 14.48 14.48 0 0 0-5.72 11.48v1.26zM10.05 37.83l-.27-2a11.65 11.65 0 0 0 5-1.67c3.31-2.4 10.31-3.26 14.09-3a23.81 23.81 0 0 1 7.06 2.22A17.59 17.59 0 0 0 39 34.57a29 29 0 0 0 5-.28h.17c.59-.06 1.17-.12 1.73-.16h.56v-3.61h-.21l-1.8.17-1.36.12-.15-2 1.34-.11 1.77-.17.46-.05a1.73 1.73 0 0 1 2 1.72v4.09A1.74 1.74 0 0 1 46.88 36h-.14l-.62.05-1.7.16h-.18a28.57 28.57 0 0 1-5.54.27 16.54 16.54 0 0 1-3.58-1.29 22.25 22.25 0 0 0-6.42-1.99c-3.4-.26-9.89.51-12.76 2.6a13.61 13.61 0 0 1-5.89 2.03zM46.74 34z"></path><path d="M37.37 30.78c-.57-.17-1.2-.41-1.93-.69a18.5 18.5 0 0 0-7.73-1.65c-4.86.29-7.22.57-9 1.08l-.56-1.92c2-.56 4.42-.86 9.45-1.15a20.24 20.24 0 0 1 8.56 1.77c.68.27 1.28.49 1.76.63zM7.4 38c-2.14 0-4.25-.39-5.34-1.48A1.7 1.7 0 0 1 1.53 35c.24-1.27 1.87-2 4.14-3 1-.41 1.93-.84 2.79-1.31l1 1.75c-.94.52-2 1-2.95 1.4a18.94 18.94 0 0 0-2.82 1.4c.9.63 3.16 1 6.13.59l.27 2A20.68 20.68 0 0 1 7.4 38z"></path><path d="M42.35 32.56h-4a1.71 1.71 0 0 1-1.7-1.71v-2.19a1.7 1.7 0 0 1 1.7-1.7h4a1.7 1.7 0 0 1 1.7 1.7v2.19a1.71 1.71 0 0 1-1.7 1.71zm-3.7-2h3.4V29h-3.4zM16.49 35.28a13 13 0 0 1-8.22-3l1.33-1.45a11 11 0 0 0 7 2.45z"></path></g></svg></svg></g></svg></g></g><g opacity="1"><g id="9c42c8ed-f724-4a42-b240-3af478646bce" transform="translate(0 0)"><svg x="293" y="450" overflow="visible"><g transform="scale(1.2074767078498865) "><circle cx="0" cy="0" fill="#ffffff" r="25"></circle><svg width="50" height="50" x="-25" y="-25" style=""><svg xmlns="http://www.w3.org/2000/svg" viewBox="0 0 50 50"><g id="Working" fill="#d6242d"><path d="M41 48.5H9a2.81 2.81 0 0 1-2.8-2.81V4.31A2.81 2.81 0 0 1 9 1.5h32a2.81 2.81 0 0 1 2.8 2.81v41.38A2.81 2.81 0 0 1 41 48.5zM9 3.5a.8.8 0 0 0-.8.81v41.38a.8.8 0 0 0 .8.81h32a.8.8 0 0 0 .8-.81V4.31a.8.8 0 0 0-.8-.81z"></path><path transform="rotate(-45 16.096 37.653)" d="M15.09 31.69h2v11.93h-2z"></path><path transform="rotate(-45 16.096 37.653)" d="M10.13 36.66h11.93v2H10.13z"></path><path d="M14.69 15.69a1 1 0 0 1-.71-.3l-3.75-3.75 1.41-1.41 3 3 6.79-6.79 1.41 1.41-7.5 7.5a1 1 0 0 1-.65.34zM14.69 27.88a1 1 0 0 1-.71-.3l-3.75-3.75 1.41-1.41 3 3 6.79-6.79 1.41 1.41-7.5 7.5a1 1 0 0 1-.65.34z"></path></g></svg></svg></g></svg></g></g><g opacity="1"><g id="c7f813cf-2e9c-4b5f-95de-84e532d8e634" transform="translate(0 0)"><svg x="720" y="360" overflow="visible"><g transform="scale(1.2074767078498865) "><circle cx="0" cy="0" fill="#ffffff" r="25"></circle><svg width="50" height="50" x="-25" y="-25"><svg xmlns="http://www.w3.org/2000/svg" viewBox="0 0 50 50"><g id="Working" fill="#d6242d"><path d="M7.94 31.62v-.83a19.8 19.8 0 0 1 39.55-1.35l-2 .13a17.8 17.8 0 0 0-35.57 1.22v.75z"></path><path d="M8.73 32.22v-1.31a16.49 16.49 0 0 1 6.55-13.07l.1-.07a18.34 18.34 0 0 1 9.3-2.51 17.61 17.61 0 0 1 17.05 12.43l-1.92.54a15.6 15.6 0 0 0-15.16-11 16.33 16.33 0 0 0-8.23 2.2 14.48 14.48 0 0 0-5.72 11.48v1.26zM10.05 37.83l-.27-2a11.65 11.65 0 0 0 5-1.67c3.31-2.4 10.31-3.26 14.09-3a23.81 23.81 0 0 1 7.06 2.22A17.59 17.59 0 0 0 39 34.57a29 29 0 0 0 5-.28h.17c.59-.06 1.17-.12 1.73-.16h.56v-3.61h-.21l-1.8.17-1.36.12-.15-2 1.34-.11 1.77-.17.46-.05a1.73 1.73 0 0 1 2 1.72v4.09A1.74 1.74 0 0 1 46.88 36h-.14l-.62.05-1.7.16h-.18a28.57 28.57 0 0 1-5.54.27 16.54 16.54 0 0 1-3.58-1.29 22.25 22.25 0 0 0-6.42-1.99c-3.4-.26-9.89.51-12.76 2.6a13.61 13.61 0 0 1-5.89 2.03zM46.74 34z"></path><path d="M37.37 30.78c-.57-.17-1.2-.41-1.93-.69a18.5 18.5 0 0 0-7.73-1.65c-4.86.29-7.22.57-9 1.08l-.56-1.92c2-.56 4.42-.86 9.45-1.15a20.24 20.24 0 0 1 8.56 1.77c.68.27 1.28.49 1.76.63zM7.4 38c-2.14 0-4.25-.39-5.34-1.48A1.7 1.7 0 0 1 1.53 35c.24-1.27 1.87-2 4.14-3 1-.41 1.93-.84 2.79-1.31l1 1.75c-.94.52-2 1-2.95 1.4a18.94 18.94 0 0 0-2.82 1.4c.9.63 3.16 1 6.13.59l.27 2A20.68 20.68 0 0 1 7.4 38z"></path><path d="M42.35 32.56h-4a1.71 1.71 0 0 1-1.7-1.71v-2.19a1.7 1.7 0 0 1 1.7-1.7h4a1.7 1.7 0 0 1 1.7 1.7v2.19a1.71 1.71 0 0 1-1.7 1.71zm-3.7-2h3.4V29h-3.4zM16.49 35.28a13 13 0 0 1-8.22-3l1.33-1.45a11 11 0 0 0 7 2.45z"></path></g></svg></svg></g></svg></g></g><g opacity="1"><g id="7b509ab3-06cb-4322-b849-af3e06ffdd84" transform="translate(0 0)"><svg x="720" y="450" overflow="visible"><g transform="scale(1.2074767078498865) "><circle cx="0" cy="0" fill="#ffffff" r="25"></circle><svg width="50" height="50" x="-25" y="-25" style=""><svg xmlns="http://www.w3.org/2000/svg" viewBox="0 0 50 50"><g id="Working" fill="#d6242d"><path d="M41 48.5H9a2.81 2.81 0 0 1-2.8-2.81V4.31A2.81 2.81 0 0 1 9 1.5h32a2.81 2.81 0 0 1 2.8 2.81v41.38A2.81 2.81 0 0 1 41 48.5zM9 3.5a.8.8 0 0 0-.8.81v41.38a.8.8 0 0 0 .8.81h32a.8.8 0 0 0 .8-.81V4.31a.8.8 0 0 0-.8-.81z"></path><path transform="rotate(-45 16.096 37.653)" d="M15.09 31.69h2v11.93h-2z"></path><path transform="rotate(-45 16.096 37.653)" d="M10.13 36.66h11.93v2H10.13z"></path><path d="M14.69 15.69a1 1 0 0 1-.71-.3l-3.75-3.75 1.41-1.41 3 3 6.79-6.79 1.41 1.41-7.5 7.5a1 1 0 0 1-.65.34zM14.69 27.88a1 1 0 0 1-.71-.3l-3.75-3.75 1.41-1.41 3 3 6.79-6.79 1.41 1.41-7.5 7.5a1 1 0 0 1-.65.34z"></path></g></svg></svg></g></svg></g></g></g><g pointer-events="auto"><g opacity="1"><g id="fdf6a1d7-bc78-4362-8de1-b6abb432b7c0" transform="translate(0 0)"><svg x="180" y="180" overflow="visible"><text stroke="#ffffff" stroke-width="0" font-family="Open Sans" y="36.5" font-size="25pt" fill="#000000" font-weight="bold" transform="" xml:space="preserve"><tspan x="8" dy="0">Account A</tspan><tspan x="8" dy="1.1em">111111111111</tspan></text><text font-family="Open Sans" y="36.5" font-size="25pt" fill="#000000" font-weight="bold" transform="" xml:space="preserve"><tspan x="8" dy="0">Account A</tspan><tspan x="8" dy="1.1em">111111111111</tspan></text></svg></g></g><g opacity="1"><g id="b527a45e-61d8-4650-9134-3b87fba91635" transform="translate(0 0)"><svg x="225" y="293" overflow="visible"><text stroke="#ffffff" stroke-width="0" font-family="Open Sans" y="36.5" font-size="25pt" fill="#000000" font-weight="bold" transform="" xml:space="preserve"><tspan x="8" dy="0">Admin</tspan></text><text font-family="Open Sans" y="36.5" font-size="25pt" fill="#000000" font-weight="bold" transform="" xml:space="preserve"><tspan x="8" dy="0">Admin</tspan></text></svg></g></g><g opacity="1"><g id="b016373b-6ea9-40ba-b8ac-a4b5230dd89a" transform="translate(0 0)"><svg x="180" y="473" overflow="visible"><text stroke="#ffffff" stroke-width="0" font-family="Open Sans" y="36.5" font-size="25pt" fill="#000000" font-weight="bold" transform="" xml:space="preserve"><tspan x="8" dy="0">sts:AssumeRole</tspan></text><text font-family="Open Sans" y="36.5" font-size="25pt" fill="#000000" font-weight="bold" transform="" xml:space="preserve"><tspan x="8" dy="0">sts:AssumeRole</tspan></text></svg></g></g><g opacity="1"><g id="19eb4760-b0b5-4a9e-afd7-41419c97a23b" transform="translate(0 0)"><svg x="608" y="180" overflow="visible"><text stroke="#ffffff" stroke-width="0" font-family="Open Sans" y="36.5" font-size="25pt" fill="#000000" font-weight="bold" transform="" xml:space="preserve"><tspan x="8" dy="0">Account B</tspan><tspan x="8" dy="1.1em">222222222222</tspan></text><text font-family="Open Sans" y="36.5" font-size="25pt" fill="#000000" font-weight="bold" transform="" xml:space="preserve"><tspan x="8" dy="0">Account B</tspan><tspan x="8" dy="1.1em">222222222222</tspan></text></svg></g></g><g opacity="1"><g id="a2214399-b3fe-4bf6-bf86-466cbf13f677" transform="translate(0 0)"><svg x="653" y="293" overflow="visible"><text stroke="#ffffff" stroke-width="0" font-family="Open Sans" y="36.5" font-size="25pt" fill="#000000" font-weight="bold" transform="" xml:space="preserve"><tspan x="8" dy="0">DNSManager</tspan></text><text font-family="Open Sans" y="36.5" font-size="25pt" fill="#000000" font-weight="bold" transform="" xml:space="preserve"><tspan x="8" dy="0">DNSManager</tspan></text></svg></g></g><g opacity="1"><g id="f021b4ca-c477-43d2-a3b3-f0594e15e320" transform="translate(0 0)"><svg x="608" y="473" overflow="visible"><text stroke="#ffffff" stroke-width="0" font-family="Open Sans" y="36.5" font-size="25pt" fill="#000000" font-weight="bold" transform="" xml:space="preserve"><tspan x="8" dy="0">sts:AssumeRole</tspan></text><text font-family="Open Sans" y="36.5" font-size="25pt" fill="#000000" font-weight="bold" transform="" xml:space="preserve"><tspan x="8" dy="0">sts:AssumeRole</tspan></text></svg></g></g></g><g></g></g></svg>