<?xml version="1.0" standalone="no"?>
<!DOCTYPE svg PUBLIC "-//W3C//DTD SVG 1.1//EN"
  "http://www.w3.org/Graphics/SVG/1.1/DTD/svg11.dtd">
<svg version="1.1" xmlns="http://www.w3.org/2000/svg" xmlns:xlink="http://www.w3.org/1999/xlink" width="1421" height="874" viewBox="-170.5 193 1421 874" id="ccdiagram"><filter id="grayscale"><feColorMatrix type="matrix" values="0.3333 0.3333 0.3333 0 0 0.3333 0.3333 0.3333 0 0 0.3333 0.3333 0.3333 0 0 0 0 0 1 0"></feColorMatrix></filter><defs><style type="text/css">@import url('https://fonts.googleapis.com/css?family=Open+Sans:400,700|Inconsolata:400');</style></defs><g><g pointer-events="auto"><g opacity="1"><g><g><polygon points="-90 495, 360 495, 405 540, 405 810, 360 855, -90 855, -135 810, -135 540" fill="#ffc9e4" stroke-width="2" stroke="#818181"></polygon><polygon points="-90 540, 360 540, 360 810, -90 810" fill="#ffc9e4" stroke-width="0" stroke="#818181"></polygon></g></g></g><g opacity="1"><g><g><polygon points="720 225, 1170 225, 1215 270, 1215 540, 1170 585, 720 585, 675 540, 675 270" fill="#8ed1fc" stroke-width="2" stroke="#818181"></polygon><polygon points="720 270, 1170 270, 1170 540, 720 540" fill="#8ed1fc" stroke-width="0" stroke="#818181"></polygon></g></g></g><g opacity="1"><g><g><polygon points="720 675, 1170 675, 1215 720, 1215 990, 1170 1035, 720 1035, 675 990, 675 720" fill="#8ed1fc" stroke-width="2" stroke="#818181"></polygon><polygon points="720 720, 1170 720, 1170 990, 720 990" fill="#8ed1fc" stroke-width="0" stroke="#818181"></polygon></g></g></g></g><g pointer-events="auto"></g><g></g><g pointer-events="auto"></g><g></g><g pointer-events="auto"></g><g pointer-events="auto"></g><g pointer-events="none"></g><g pointer-events="auto"><g><g cursor="cell"><line x1="-45" y1="675" x2="253" y2="675" stroke="red" stroke-width="8" opacity="0"></line><line x1="-45" y1="675" x2="253" y2="675" stroke="#000000" stroke-width="2" stroke-linecap="round"></line><polygon points="266 675, 242 664, 249 675, 242 686, 266 675" stroke-linejoin="round" fill="#000000" stroke="#000000" stroke-width="1"></polygon></g></g><g><g cursor="cell"><line x1="315" y1="675" x2="705" y2="413" stroke="red" stroke-width="8" opacity="0"></line><line x1="315" y1="675" x2="705" y2="413" stroke="#000000" stroke-width="2" stroke-linecap="round"></line><polygon points="716 405, 690 409, 702 415, 702 428, 716 405" stroke-linejoin="round" fill="#000000" stroke="#000000" stroke-width="1"></polygon></g></g><g><g cursor="cell"><line x1="315" y1="675" x2="704" y2="849" stroke="red" stroke-width="8" opacity="0"></line><line x1="315" y1="675" x2="704" y2="849" stroke="#000000" stroke-width="2" stroke-linecap="round"></line><polygon points="716 855, 699 835, 700 848, 689 855, 716 855" stroke-linejoin="round" fill="#000000" stroke="#000000" stroke-width="1"></polygon></g></g><g><g cursor="cell"><line x1="765" y1="405" x2="1058" y2="405" stroke="red" stroke-width="8" opacity="0"></line><line x1="765" y1="405" x2="1058" y2="405" stroke="#000000" stroke-width="2" stroke-linecap="round"></line><polygon points="1071 405, 1047 394, 1053 405, 1047 416, 1071 405" stroke-linejoin="round" fill="#000000" stroke="#000000" stroke-width="1"></polygon></g></g><g><g cursor="cell"><line x1="765" y1="855" x2="1058" y2="855" stroke="red" stroke-width="8" opacity="0"></line><line x1="765" y1="855" x2="1058" y2="855" stroke="#000000" stroke-width="2" stroke-linecap="round"></line><polygon points="1071 855, 1047 844, 1053 855, 1047 866, 1071 855" stroke-linejoin="round" fill="#000000" stroke="#000000" stroke-width="1"></polygon></g></g></g><g pointer-events="auto"></g><g pointer-events="auto"></g><g pointer-events="auto"><g opacity="1"><g id="1930e520-3126-4e75-a4ba-b1e7cc63230d" transform="translate(0 0)"><svg x="765" y="405" overflow="visible"><g transform="scale(1.5093458848123582) "><circle cx="0" cy="0" fill="#8ed1fc" r="25"></circle><svg width="50" height="50" x="-25" y="-25"><svg xmlns="http://www.w3.org/2000/svg" viewBox="0 0 50 50"><g id="Working" fill="#d6242d"><path d="M7.94 31.62v-.83a19.8 19.8 0 0139.55-1.35l-2 .13a17.8 17.8 0 00-35.57 1.22v.75z"></path><path d="M8.73 32.22v-1.31a16.49 16.49 0 016.55-13.07l.1-.07a18.34 18.34 0 019.3-2.51 17.61 17.61 0 0117.05 12.43l-1.92.54a15.6 15.6 0 00-15.16-11 16.33 16.33 0 00-8.23 2.2 14.48 14.48 0 00-5.72 11.48v1.26zM10.05 37.83l-.27-2a11.65 11.65 0 005-1.67c3.31-2.4 10.31-3.26 14.09-3a23.81 23.81 0 017.06 2.22A17.59 17.59 0 0039 34.57a29 29 0 005-.28h.17c.59-.06 1.17-.12 1.73-.16h.56v-3.61h-.21l-1.8.17-1.36.12-.15-2 1.34-.11 1.77-.17.46-.05a1.73 1.73 0 012 1.72v4.09A1.74 1.74 0 0146.88 36h-.14l-.62.05-1.7.16h-.18a28.57 28.57 0 01-5.54.27 16.54 16.54 0 01-3.58-1.29 22.25 22.25 0 00-6.42-1.99c-3.4-.26-9.89.51-12.76 2.6a13.61 13.61 0 01-5.89 2.03zM46.74 34z"></path><path d="M37.37 30.78c-.57-.17-1.2-.41-1.93-.69a18.5 18.5 0 00-7.73-1.65c-4.86.29-7.22.57-9 1.08l-.56-1.92c2-.56 4.42-.86 9.45-1.15a20.24 20.24 0 018.56 1.77c.68.27 1.28.49 1.76.63zM7.4 38c-2.14 0-4.25-.39-5.34-1.48A1.7 1.7 0 011.53 35c.24-1.27 1.87-2 4.14-3 1-.41 1.93-.84 2.79-1.31l1 1.75c-.94.52-2 1-2.95 1.4a18.94 18.94 0 00-2.82 1.4c.9.63 3.16 1 6.13.59l.27 2A20.68 20.68 0 017.4 38z"></path><path d="M42.35 32.56h-4a1.71 1.71 0 01-1.7-1.71v-2.19a1.7 1.7 0 011.7-1.7h4a1.7 1.7 0 011.7 1.7v2.19a1.71 1.71 0 01-1.7 1.71zm-3.7-2h3.4V29h-3.4zM16.49 35.28a13 13 0 01-8.22-3l1.33-1.45a11 11 0 007 2.45z"></path></g></svg></svg></g></svg></g></g><g opacity="1"><g id="fb8a40ee-545c-4325-9c30-a75ffdd9d0da" transform="translate(0 0)"><svg x="765" y="855" overflow="visible"><g transform="scale(1.5093458848123582) "><circle cx="0" cy="0" fill="#8ed1fc" r="25"></circle><svg width="50" height="50" x="-25" y="-25"><svg xmlns="http://www.w3.org/2000/svg" viewBox="0 0 50 50"><g id="Working" fill="#d6242d"><path d="M7.94 31.62v-.83a19.8 19.8 0 0139.55-1.35l-2 .13a17.8 17.8 0 00-35.57 1.22v.75z"></path><path d="M8.73 32.22v-1.31a16.49 16.49 0 016.55-13.07l.1-.07a18.34 18.34 0 019.3-2.51 17.61 17.61 0 0117.05 12.43l-1.92.54a15.6 15.6 0 00-15.16-11 16.33 16.33 0 00-8.23 2.2 14.48 14.48 0 00-5.72 11.48v1.26zM10.05 37.83l-.27-2a11.65 11.65 0 005-1.67c3.31-2.4 10.31-3.26 14.09-3a23.81 23.81 0 017.06 2.22A17.59 17.59 0 0039 34.57a29 29 0 005-.28h.17c.59-.06 1.17-.12 1.73-.16h.56v-3.61h-.21l-1.8.17-1.36.12-.15-2 1.34-.11 1.77-.17.46-.05a1.73 1.73 0 012 1.72v4.09A1.74 1.74 0 0146.88 36h-.14l-.62.05-1.7.16h-.18a28.57 28.57 0 01-5.54.27 16.54 16.54 0 01-3.58-1.29 22.25 22.25 0 00-6.42-1.99c-3.4-.26-9.89.51-12.76 2.6a13.61 13.61 0 01-5.89 2.03zM46.74 34z"></path><path d="M37.37 30.78c-.57-.17-1.2-.41-1.93-.69a18.5 18.5 0 00-7.73-1.65c-4.86.29-7.22.57-9 1.08l-.56-1.92c2-.56 4.42-.86 9.45-1.15a20.24 20.24 0 018.56 1.77c.68.27 1.28.49 1.76.63zM7.4 38c-2.14 0-4.25-.39-5.34-1.48A1.7 1.7 0 011.53 35c.24-1.27 1.87-2 4.14-3 1-.41 1.93-.84 2.79-1.31l1 1.75c-.94.52-2 1-2.95 1.4a18.94 18.94 0 00-2.82 1.4c.9.63 3.16 1 6.13.59l.27 2A20.68 20.68 0 017.4 38z"></path><path d="M42.35 32.56h-4a1.71 1.71 0 01-1.7-1.71v-2.19a1.7 1.7 0 011.7-1.7h4a1.7 1.7 0 011.7 1.7v2.19a1.71 1.71 0 01-1.7 1.71zm-3.7-2h3.4V29h-3.4zM16.49 35.28a13 13 0 01-8.22-3l1.33-1.45a11 11 0 007 2.45z"></path></g></svg></svg></g></svg></g></g><g opacity="1"><g id="0246ac53-a4aa-487d-b30b-5b01b2ef720c" transform="translate(0 0)"><svg x="315" y="675" overflow="visible"><g transform="scale(1.5093458848123582) "><circle cx="0" cy="0" fill="#ffc9e4" r="25"></circle><svg width="50" height="50" x="-25" y="-25"><svg xmlns="http://www.w3.org/2000/svg" viewBox="0 0 50 50"><g id="Working" fill="#d6242d"><path d="M7.94 31.62v-.83a19.8 19.8 0 0139.55-1.35l-2 .13a17.8 17.8 0 00-35.57 1.22v.75z"></path><path d="M8.73 32.22v-1.31a16.49 16.49 0 016.55-13.07l.1-.07a18.34 18.34 0 019.3-2.51 17.61 17.61 0 0117.05 12.43l-1.92.54a15.6 15.6 0 00-15.16-11 16.33 16.33 0 00-8.23 2.2 14.48 14.48 0 00-5.72 11.48v1.26zM10.05 37.83l-.27-2a11.65 11.65 0 005-1.67c3.31-2.4 10.31-3.26 14.09-3a23.81 23.81 0 017.06 2.22A17.59 17.59 0 0039 34.57a29 29 0 005-.28h.17c.59-.06 1.17-.12 1.73-.16h.56v-3.61h-.21l-1.8.17-1.36.12-.15-2 1.34-.11 1.77-.17.46-.05a1.73 1.73 0 012 1.72v4.09A1.74 1.74 0 0146.88 36h-.14l-.62.05-1.7.16h-.18a28.57 28.57 0 01-5.54.27 16.54 16.54 0 01-3.58-1.29 22.25 22.25 0 00-6.42-1.99c-3.4-.26-9.89.51-12.76 2.6a13.61 13.61 0 01-5.89 2.03zM46.74 34z"></path><path d="M37.37 30.78c-.57-.17-1.2-.41-1.93-.69a18.5 18.5 0 00-7.73-1.65c-4.86.29-7.22.57-9 1.08l-.56-1.92c2-.56 4.42-.86 9.45-1.15a20.24 20.24 0 018.56 1.77c.68.27 1.28.49 1.76.63zM7.4 38c-2.14 0-4.25-.39-5.34-1.48A1.7 1.7 0 011.53 35c.24-1.27 1.87-2 4.14-3 1-.41 1.93-.84 2.79-1.31l1 1.75c-.94.52-2 1-2.95 1.4a18.94 18.94 0 00-2.82 1.4c.9.63 3.16 1 6.13.59l.27 2A20.68 20.68 0 017.4 38z"></path><path d="M42.35 32.56h-4a1.71 1.71 0 01-1.7-1.71v-2.19a1.7 1.7 0 011.7-1.7h4a1.7 1.7 0 011.7 1.7v2.19a1.71 1.71 0 01-1.7 1.71zm-3.7-2h3.4V29h-3.4zM16.49 35.28a13 13 0 01-8.22-3l1.33-1.45a11 11 0 007 2.45z"></path></g></svg></svg></g></svg></g></g><g opacity="1"><g id="4dcb1802-6c61-454d-acff-8ca5e8a11f03" transform="translate(0 0)"><svg x="-45" y="675" overflow="visible"><g transform="scale(1.2074767078498865) "><circle cx="0" cy="0" fill="transparent" r="37.5"></circle><svg width="75" height="75" x="-37.5" y="-37.5" style=""><svg xmlns="http://www.w3.org/2000/svg" viewBox="0 0 75 75"><g id="Reference"><path id="Orange_Light_BG" data-name="Orange Light BG" fill="#d86613" d="M0 0h75v75H0z"></path><g id="Product_Icon" data-name="Product Icon" fill="#fff"><path d="M37.29 64.44a1 1 0 01-.53-.14L14 51.18a1.06 1.06 0 01-.53-.92V23.68a1.06 1.06 0 01.53-.92L34.93 10.7a1 1 0 011.57.9v11.51a1.05 1.05 0 01-.5.89l-10.47 6v13.94l11.79 6.81 10.31-6a1 1 0 011 0l9.92 5.7a1.06 1.06 0 01.53.92 1 1 0 01-.53.91l-20.75 12a1 1 0 01-.51.16zM15.5 49.54l22.33 12.89L57 51.35l-8-4.61-10.63 6.14a1.11 1.11 0 01-1.09 0L24 45.22a1.05 1.05 0 01-.53-.91V29.46a1 1 0 01.53-.91l10.47-6v-9.18l-19 11z"></path><path d="M60.44 49a1.13 1.13 0 01-.53-.14L50 43.13a1 1 0 01-.53-.91V30.11L39 24.07a1.05 1.05 0 01-.53-.91V11.65a1 1 0 01.52-.9 1 1 0 011 0L61 22.82a1.05 1.05 0 01.53.91V47.9a1.06 1.06 0 01-.53.92 1.1 1.1 0 01-.56.18zm-8.94-7.45l8 4.6V24.4l-19-11v9.13L51 28.61a1 1 0 01.53.91z"></path></g></g></svg></svg></g></svg></g></g><g opacity="1"><g id="922a3f33-db95-4eef-84e9-a00840bcfbbb" transform="translate(0 0)"><svg x="1125" y="405" overflow="visible"><g transform="scale(1.2074767078498865) "><circle cx="0" cy="0" fill="#ffffff" r="37.5"></circle><svg width="75" height="75" x="-37.5" y="-37.5" style=""><svg xmlns="http://www.w3.org/2000/svg" viewBox="0 0 75 75"><g id="Reference"><path id="Pink_Light_BG" data-name="Pink Light BG" fill="#cc2264" d="M0 0h75v75H0z"></path><g id="Product_Icon" data-name="Product Icon" fill="#fff"><path d="M31.5 48h-11a6.11 6.11 0 01-3.14-.94 10.18 10.18 0 01-4.86-8.89A9.09 9.09 0 0119 29v-.78a13.7 13.7 0 017.82-12.08 13.12 13.12 0 0114.79 2.93 15.05 15.05 0 013 4.4 5.86 5.86 0 013.68-1.3c2.72 0 5.78 2.06 6.34 6.58 2.57.61 7.85 2.71 7.85 9.51a9 9 0 01-4.73 8.39l-1-1.75a7.08 7.08 0 003.7-6.64c0-5.88-4.87-7.34-7-7.7a1 1 0 01-.65-.42 1 1 0 01-.17-.72c-.29-3.63-2.41-5.25-4.4-5.25A4 4 0 0045 25.86a1 1 0 01-.95.4 1 1 0 01-.79-.66 13.6 13.6 0 00-3.14-5.12A11.16 11.16 0 0027.61 18 11.76 11.76 0 0021 28.2a12.34 12.34 0 00.08 1.38 1 1 0 01-.81 1.11 7.24 7.24 0 00-5.78 7.48 8.13 8.13 0 003.93 7.2 4 4 0 002.08.63h11z"></path><path d="M61.39 54l-7.1-7.13A10.61 10.61 0 1049.43 52l7 7a3.52 3.52 0 002.5 1 3.48 3.48 0 002.49-1 3.52 3.52 0 00-.03-5zM44.6 51.17a8.59 8.59 0 118.59-8.59 8.59 8.59 0 01-8.59 8.59zM60 57.55a1.57 1.57 0 01-2.16 0l-6.66-6.66a10.48 10.48 0 002.12-2.24l6.7 6.74a1.54 1.54 0 010 2.16z"></path><path d="M47.35 37.93l-1.19 1.61a3.37 3.37 0 00-5.34 3.2A3.3 3.3 0 0042.15 45L41 46.56a5.37 5.37 0 016.39-8.63z"></path></g></g></svg></svg></g></svg></g></g><g opacity="1"><g id="75158ea7-fc97-4bb8-a495-792e6039bbba" transform="translate(0 0)"><svg x="1125" y="855" overflow="visible"><g transform="scale(1.2074767078498865) "><circle cx="0" cy="0" fill="#ffffff" r="37.5"></circle><svg width="75" height="75" x="-37.5" y="-37.5" style=""><svg xmlns="http://www.w3.org/2000/svg" viewBox="0 0 75 75"><g id="Reference"><path id="Pink_Light_BG" data-name="Pink Light BG" fill="#cc2264" d="M0 0h75v75H0z"></path><g id="Product_Icon" data-name="Product Icon" fill="#fff"><path d="M31.5 48h-11a6.11 6.11 0 01-3.14-.94 10.18 10.18 0 01-4.86-8.89A9.09 9.09 0 0119 29v-.78a13.7 13.7 0 017.82-12.08 13.12 13.12 0 0114.79 2.93 15.05 15.05 0 013 4.4 5.86 5.86 0 013.68-1.3c2.72 0 5.78 2.06 6.34 6.58 2.57.61 7.85 2.71 7.85 9.51a9 9 0 01-4.73 8.39l-1-1.75a7.08 7.08 0 003.7-6.64c0-5.88-4.87-7.34-7-7.7a1 1 0 01-.65-.42 1 1 0 01-.17-.72c-.29-3.63-2.41-5.25-4.4-5.25A4 4 0 0045 25.86a1 1 0 01-.95.4 1 1 0 01-.79-.66 13.6 13.6 0 00-3.14-5.12A11.16 11.16 0 0027.61 18 11.76 11.76 0 0021 28.2a12.34 12.34 0 00.08 1.38 1 1 0 01-.81 1.11 7.24 7.24 0 00-5.78 7.48 8.13 8.13 0 003.93 7.2 4 4 0 002.08.63h11z"></path><path d="M61.39 54l-7.1-7.13A10.61 10.61 0 1049.43 52l7 7a3.52 3.52 0 002.5 1 3.48 3.48 0 002.49-1 3.52 3.52 0 00-.03-5zM44.6 51.17a8.59 8.59 0 118.59-8.59 8.59 8.59 0 01-8.59 8.59zM60 57.55a1.57 1.57 0 01-2.16 0l-6.66-6.66a10.48 10.48 0 002.12-2.24l6.7 6.74a1.54 1.54 0 010 2.16z"></path><path d="M47.35 37.93l-1.19 1.61a3.37 3.37 0 00-5.34 3.2A3.3 3.3 0 0042.15 45L41 46.56a5.37 5.37 0 016.39-8.63z"></path></g></g></svg></svg></g></svg></g></g></g><g pointer-events="auto"><g opacity="1"><g id="048c9687-e678-42f5-918e-92ab2fde9362" transform="translate(0 0)"><svg x="45" y="518" overflow="visible"><text stroke="#ffffff" stroke-width="4" font-family="Open Sans" y="36.5" font-size="25pt" fill="#3f51b5" font-weight="bold" transform="" xml:space="preserve"><tspan x="8" dy="0">monitoring</tspan></text><text font-family="Open Sans" y="36.5" font-size="25pt" fill="#3f51b5" font-weight="bold" transform="" xml:space="preserve"><tspan x="8" dy="0">monitoring</tspan></text></svg></g></g><g opacity="1"><g id="3e4f72b1-656b-47bd-a3e5-1fad843f1577" transform="translate(0 0)"><svg x="855" y="248" overflow="visible"><text stroke="#ffffff" stroke-width="4" font-family="Open Sans" y="36.5" font-size="25pt" fill="#3f51b5" font-weight="bold" transform="" xml:space="preserve"><tspan x="8" dy="0">service-a</tspan></text><text font-family="Open Sans" y="36.5" font-size="25pt" fill="#3f51b5" font-weight="bold" transform="" xml:space="preserve"><tspan x="8" dy="0">service-a</tspan></text></svg></g></g><g opacity="1"><g id="ccf37222-983e-40aa-82f3-8277244b83c6" transform="translate(0 0)"><svg x="855" y="698" overflow="visible"><text stroke="#ffffff" stroke-width="4" font-family="Open Sans" y="36.5" font-size="25pt" fill="#3f51b5" font-weight="bold" transform="" xml:space="preserve"><tspan x="8" dy="0">service-b</tspan></text><text font-family="Open Sans" y="36.5" font-size="25pt" fill="#3f51b5" font-weight="bold" transform="" xml:space="preserve"><tspan x="8" dy="0">service-b</tspan></text></svg></g></g><g opacity="1"><g id="0890fcb0-ad87-4c40-86df-ff9bdcd601f3"><svg x="248" y="698" overflow="visible"><text stroke="#ffffff" stroke-width="4" font-family="Open Sans" y="36.5" font-size="25pt" fill="#e91e63" font-weight="bold" transform="" xml:space="preserve"><tspan x="8" dy="0">grafana</tspan></text><text font-family="Open Sans" y="36.5" font-size="25pt" fill="#e91e63" font-weight="bold" transform="" xml:space="preserve"><tspan x="8" dy="0">grafana</tspan></text></svg></g></g><g opacity="1"><g id="e1c855cb-ee98-4667-80b9-ec2ded79d2a5" transform="translate(0 0)"><svg x="518" y="338" overflow="visible"><text stroke="#ffffff" stroke-width="4" font-family="Open Sans" y="36.5" font-size="25pt" fill="#e91e63" font-weight="bold" transform="" xml:space="preserve"><tspan x="8" dy="0">grafana-cloudwatch-agent</tspan></text><text font-family="Open Sans" y="36.5" font-size="25pt" fill="#e91e63" font-weight="bold" transform="" xml:space="preserve"><tspan x="8" dy="0">grafana-cloudwatch-agent</tspan></text></svg></g></g><g opacity="1"><g id="06f9a7d6-8522-4d7c-abd4-07fc3af9eaf8" transform="translate(0 0)"><svg x="518" y="878" overflow="visible"><text stroke="#ffffff" stroke-width="4" font-family="Open Sans" y="36.5" font-size="25pt" fill="#e91e63" font-weight="bold" transform="" xml:space="preserve"><tspan x="8" dy="0">grafana-cloudwatch-agent</tspan></text><text font-family="Open Sans" y="36.5" font-size="25pt" fill="#e91e63" font-weight="bold" transform="" xml:space="preserve"><tspan x="8" dy="0">grafana-cloudwatch-agent</tspan></text></svg></g></g><g opacity="1"><g id="b595bd1e-5687-4f52-84f4-4de790cfa86a" transform="translate(0 0)"><svg x="-81" y="726" overflow="visible"><text stroke="#ffffff" stroke-width="4" font-family="Open Sans" y="36.5" font-size="25pt" fill="#000000" font-weight="bold" transform="" xml:space="preserve"><tspan x="8" dy="0">ECS</tspan></text><text font-family="Open Sans" y="36.5" font-size="25pt" fill="#000000" font-weight="bold" transform="" xml:space="preserve"><tspan x="8" dy="0">ECS</tspan></text></svg></g></g><g opacity="1"><g id="d20e66c1-a974-4f89-ab84-4ff8bcf089d4" transform="translate(0 0)"><svg x="1013" y="450" overflow="visible"><text stroke="#ffffff" stroke-width="4" font-family="Open Sans" y="36.5" font-size="25pt" fill="#000000" font-weight="bold" transform="" xml:space="preserve"><tspan x="8" dy="0">CloudWatch</tspan></text><text font-family="Open Sans" y="36.5" font-size="25pt" fill="#000000" font-weight="bold" transform="" xml:space="preserve"><tspan x="8" dy="0">CloudWatch</tspan></text></svg></g></g><g opacity="1"><g id="ec18039e-1c76-4fdd-b101-b5baebf2417b" transform="translate(0 0)"><svg x="1013" y="765" overflow="visible"><text stroke="#ffffff" stroke-width="4" font-family="Open Sans" y="36.5" font-size="25pt" fill="#000000" font-weight="bold" transform="" xml:space="preserve"><tspan x="8" dy="0">CloudWatch</tspan></text><text font-family="Open Sans" y="36.5" font-size="25pt" fill="#000000" font-weight="bold" transform="" xml:space="preserve"><tspan x="8" dy="0">CloudWatch</tspan></text></svg></g></g><g opacity="1"><g id="73586093-278d-451a-ac8d-9924d8ffadd1" transform="translate(0 0)"><svg x="90" y="630" overflow="visible"><text stroke="#ffffff" stroke-width="4" font-family="Open Sans" y="36.5" font-size="25pt" fill="#000000" font-weight="bold" transform="" xml:space="preserve"><tspan x="8" dy="0">assume</tspan></text><text font-family="Open Sans" y="36.5" font-size="25pt" fill="#000000" font-weight="bold" transform="" xml:space="preserve"><tspan x="8" dy="0">assume</tspan></text></svg></g></g><g opacity="1"><g id="655db679-63c2-4292-b430-25873e4770b9" transform="translate(0 0)"><svg x="473" y="518" overflow="visible"><text stroke="#ffffff" stroke-width="4" font-family="Open Sans" y="36.5" font-size="25pt" fill="#000000" font-weight="bold" transform="" xml:space="preserve"><tspan x="8" dy="0">assume</tspan></text><text font-family="Open Sans" y="36.5" font-size="25pt" fill="#000000" font-weight="bold" transform="" xml:space="preserve"><tspan x="8" dy="0">assume</tspan></text></svg></g></g><g opacity="1"><g id="5ffe569f-e736-4404-b613-a40820362408" transform="translate(0 0)"><svg x="473" y="743" overflow="visible"><text stroke="#ffffff" stroke-width="4" font-family="Open Sans" y="36.5" font-size="25pt" fill="#000000" font-weight="bold" transform="" xml:space="preserve"><tspan x="8" dy="0">assume</tspan></text><text font-family="Open Sans" y="36.5" font-size="25pt" fill="#000000" font-weight="bold" transform="" xml:space="preserve"><tspan x="8" dy="0">assume</tspan></text></svg></g></g><g opacity="1"><g id="db932d07-40d8-4b9d-85c6-dbf63e90c299" transform="translate(0 0)"><svg x="900" y="405" overflow="visible"><text stroke="#ffffff" stroke-width="4" font-family="Open Sans" y="36.5" font-size="25pt" fill="#000000" font-weight="bold" transform="" xml:space="preserve"><tspan x="8" dy="0">read</tspan></text><text font-family="Open Sans" y="36.5" font-size="25pt" fill="#000000" font-weight="bold" transform="" xml:space="preserve"><tspan x="8" dy="0">read</tspan></text></svg></g></g><g opacity="1"><g id="4b0cd7d4-b162-414c-8c07-0adac7abd0d5" transform="translate(0 0)"><svg x="900" y="810" overflow="visible"><text stroke="#ffffff" stroke-width="4" font-family="Open Sans" y="36.5" font-size="25pt" fill="#000000" font-weight="bold" transform="" xml:space="preserve"><tspan x="8" dy="0">read</tspan></text><text font-family="Open Sans" y="36.5" font-size="25pt" fill="#000000" font-weight="bold" transform="" xml:space="preserve"><tspan x="8" dy="0">read</tspan></text></svg></g></g></g><g></g></g></svg>