<?xml version="1.0" encoding="UTF-8" standalone="no"?><svg xmlns="http://www.w3.org/2000/svg" xmlns:xlink="http://www.w3.org/1999/xlink" contentScriptType="application/ecmascript" contentStyleType="text/css" height="268px" preserveAspectRatio="none" style="width:685px;height:268px;background:#FFFFFF;" version="1.1" viewBox="0 0 685 268" width="685px" zoomAndPan="magnify"><defs><filter height="300%" id="fs3yqms900abj" width="300%" x="-1" y="-1"><feGaussianBlur result="blurOut" stdDeviation="2.0"/><feColorMatrix in="blurOut" result="blurOut2" type="matrix" values="0 0 0 0 0 0 0 0 0 0 0 0 0 0 0 0 0 0 .4 0"/><feOffset dx="4.0" dy="4.0" in="blurOut2" result="blurOut3"/><feBlend in="SourceGraphic" in2="blurOut3" mode="normal"/></filter></defs><g><text fill="#000000" font-family="sans-serif" font-size="18" lengthAdjust="spacing" textLength="219" x="226.75" y="16.708">GKE Service Split (CDN)</text><!--MD5=[85c29abb6924ba539b01a2368cd4e5a6]
cluster Cluster--><rect fill="#FFFFFF" filter="url(#fs3yqms900abj)" height="229" style="stroke:#000000;stroke-width:1.5;" width="570" x="103.5" y="27.9531"/><text fill="#000000" font-family="sans-serif" font-size="14" font-weight="bold" lengthAdjust="spacing" textLength="154" x="311.5" y="42.9482">Kubernetes Cluster</text><!--MD5=[c8ffe1ebc5ac90f537fe46e912343a18]
cluster Deployment--><rect fill="#1E90FF" filter="url(#fs3yqms900abj)" height="158" style="stroke:#000000;stroke-width:1.5;" width="112" x="537.5" y="70.9531"/><text fill="#000000" font-family="sans-serif" font-size="14" font-weight="bold" lengthAdjust="spacing" textLength="96" x="545.5" y="85.9482">Deployment</text><!--MD5=[76135f9afc5f2b97af6996623fc8da30]
entity Ingress--><rect fill="#FEFECE" filter="url(#fs3yqms900abj)" height="36.2969" style="stroke:#000000;stroke-width:1.5;" width="71" x="119.5" y="102.9531"/><text fill="#000000" font-family="sans-serif" font-size="14" lengthAdjust="spacing" textLength="51" x="129.5" y="125.9482">Ingress</text><!--MD5=[16ac780ffa2d52103a04a5b155c90cca]
entity BackendConfigCDN--><rect fill="#FFFFFF" filter="url(#fs3yqms900abj)" height="36.2969" style="stroke:#000000;stroke-width:1.5;" width="164" x="302.5" y="204.9531"/><text fill="#000000" font-family="sans-serif" font-size="14" lengthAdjust="spacing" textLength="144" x="312.5" y="227.9482">BackendConfig CDN</text><!--MD5=[206b71576a27835fdb87753f16768fca]
entity ServiceCDN--><rect fill="#FFFFFF" filter="url(#fs3yqms900abj)" height="36.2969" style="stroke:#000000;stroke-width:1.5;" width="108" x="330.5" y="133.9531"/><text fill="#000000" font-family="sans-serif" font-size="14" lengthAdjust="spacing" textLength="88" x="340.5" y="156.9482">Service CDN</text><!--MD5=[17737e49c286898813382e12d6080e03]
entity Service--><rect fill="#FFC0CB" filter="url(#fs3yqms900abj)" height="36.2969" style="stroke:#000000;stroke-width:1.5;" width="73" x="348" y="62.9531"/><text fill="#000000" font-family="sans-serif" font-size="14" lengthAdjust="spacing" textLength="53" x="358" y="85.9482">Service</text><!--MD5=[9288fc4cd2bb226c9e784e92462c1726]
entity Pod1--><rect fill="#1E90FF" filter="url(#fs3yqms900abj)" height="36.2969" style="stroke:#000000;stroke-width:1.5;" width="47" x="569.5" y="176.9531"/><text fill="#000000" font-family="sans-serif" font-size="14" lengthAdjust="spacing" textLength="27" x="579.5" y="199.9482">Pod</text><!--MD5=[7ba886567fdd810a486ca9cb47113f5a]
entity Pod2--><rect fill="#1E90FF" filter="url(#fs3yqms900abj)" height="36.2969" style="stroke:#000000;stroke-width:1.5;" width="47" x="569.5" y="105.9531"/><text fill="#000000" font-family="sans-serif" font-size="14" lengthAdjust="spacing" textLength="27" x="579.5" y="128.9482">Pod</text><!--MD5=[0ba5ee7700168656dc1b457c6fe9fdac]
entity Client--><ellipse cx="27.5" cy="120.9531" fill="#FEFECE" filter="url(#fs3yqms900abj)" rx="8" ry="8" style="stroke:#A80036;stroke-width:1.5;"/><text fill="#000000" font-family="sans-serif" font-size="14" lengthAdjust="spacing" textLength="43" x="6" y="150.9482">Client</text><!--MD5=[aa9de79f49d1bfd668e7c1ed4b765918]
link Pod1 to Pod2--><!--MD5=[27022ce52f07ef8d12a98d49941cead5]
link Ingress to Service--><path d="M190.552,114.8781 C231.403,107.6951 299.307,95.7561 342.704,88.1261 " fill="none" id="Ingress-to-Service" style="stroke:#A80036;stroke-width:1.0;"/><polygon fill="#A80036" points="347.871,87.2171,338.3143,84.8359,342.9465,88.0829,339.6995,92.7151,347.871,87.2171" style="stroke:#A80036;stroke-width:1.0;"/><text fill="#000000" font-family="sans-serif" font-size="13" lengthAdjust="spacing" textLength="11" x="241" y="97.02">/*</text><!--MD5=[c9cca6b7fe2dbbec8b0653b63b8ac1a5]
link Ingress to ServiceCDN--><path d="M190.565,136.0771 C200.091,139.6171 210.546,142.9401 220.5,144.9531 C254.618,151.8541 293.541,153.7421 324.794,153.8401 " fill="none" id="Ingress-to-ServiceCDN" style="stroke:#A80036;stroke-width:1.0;"/><polygon fill="#A80036" points="330.139,153.8401,321.139,149.8401,325.139,153.8401,321.139,157.8401,330.139,153.8401" style="stroke:#A80036;stroke-width:1.0;"/><text fill="#000000" font-family="sans-serif" font-size="13" lengthAdjust="spacing" textLength="50" x="221.5" y="141.02">/static/*</text><!--MD5=[eb6a13ba1a72e1a4a3b3501e0117b0e0]
link BackendConfigCDN to ServiceCDN--><path d="M384.5,204.9258 C384.5,195.058 384.5,185.1903 384.5,175.3226 " fill="none" id="BackendConfigCDN-to-ServiceCDN" style="stroke:#A80036;stroke-width:1.0;"/><polygon fill="#A80036" points="384.5,170.1621,380.5,179.1621,384.5,175.1621,388.5,179.1621,384.5,170.1621" style="stroke:#A80036;stroke-width:1.0;"/><!--MD5=[058bfa318e1239ddaaa90368ab1c7a16]
link ServiceCDN to Pod1--><path d="M438.679,163.0271 C478.834,171.3881 532.321,182.526 564.345,189.1944 " fill="none" id="ServiceCDN-to-Pod1" style="stroke:#A80036;stroke-width:1.0;"/><polygon fill="#A80036" points="569.295,190.2251,561.2986,184.4755,564.3999,189.2065,559.6689,192.3078,569.295,190.2251" style="stroke:#A80036;stroke-width:1.0;"/><!--MD5=[90845e3112b58bb6b93a7d17763119f5]
link ServiceCDN to Pod2--><path d="M438.679,144.7421 C478.669,139.3201 531.881,132.1051 563.948,127.7571 " fill="none" id="ServiceCDN-to-Pod2" style="stroke:#A80036;stroke-width:1.0;"/><polygon fill="#A80036" points="569.295,127.0321,559.8394,124.2767,564.3403,127.7034,560.9135,132.2042,569.295,127.0321" style="stroke:#A80036;stroke-width:1.0;"/><!--MD5=[41883b93543bee90c14950cf5ec74128]
link Service to Pod1--><path d="M421.329,94.6071 C435.685,100.5441 452.185,107.9691 466.5,115.9531 C496.327,132.5891 500.565,141.8091 529.5,159.9531 C540.84,167.0641 553.691,174.3815 564.779,180.4757 " fill="none" id="Service-to-Pod1" style="stroke:#A80036;stroke-width:1.0;"/><polygon fill="#A80036" points="569.414,183.0084,563.4337,175.1831,565.0262,180.6111,559.5981,182.2036,569.414,183.0084" style="stroke:#A80036;stroke-width:1.0;"/><!--MD5=[504424bca3a7d7b8df33ea304cb83b67]
link Service to Pod2--><path d="M421.47,88.4431 C462,96.8831 527.03,110.4241 563.971,118.1161 " fill="none" id="Service-to-Pod2" style="stroke:#A80036;stroke-width:1.0;"/><polygon fill="#A80036" points="569.211,119.2081,561.2164,113.4561,564.3162,118.188,559.5842,121.2878,569.211,119.2081" style="stroke:#A80036;stroke-width:1.0;"/><!--MD5=[5c120e158ca0d930cefbe75667cee584]
link Client to Ingress--><path d="M36.7344,120.9531 C52.2381,120.9531 86.6815,120.9531 114.25,120.9531 " fill="none" id="Client-to-Ingress" style="stroke:#A80036;stroke-width:1.0;"/><polygon fill="#A80036" points="119.312,120.9531,110.312,116.9531,114.312,120.9531,110.312,124.9531,119.312,120.9531" style="stroke:#A80036;stroke-width:1.0;"/><!--MD5=[014f1a0e4acab58c74f74000d89ee54d]
@startuml
title GKE Service Split (CDN)
skinparam componentStyle rectangle
left to right direction

component "Kubernetes Cluster" as Cluster {
  [Ingress]
  [BackendConfig CDN] as BackendConfigCDN #White
  [Service CDN] as ServiceCDN #White
  [Service] #Pink

  
  component "Deployment" #DodgerBlue {
    [Pod] as Pod1 #DodgerBlue
    [Pod] as Pod2 #DodgerBlue
    
    [Pod1] -[hidden]> [Pod2]
  }


  [Ingress] - -> [Service] : /*
  [Ingress] - -> [ServiceCDN] : /static/*
  
  [BackendConfigCDN] -> [ServiceCDN]

  [ServiceCDN] - -> [Pod1]
  [ServiceCDN] - -> [Pod2]  
  [Service] - -> [Pod1]
  [Service] - -> [Pod2]

}

Client - -> Ingress
@enduml

PlantUML version 1.2021.17beta10(Unknown compile time)
(GPL source distribution)
Java Runtime: Java(TM) SE Runtime Environment
JVM: Java HotSpot(TM) 64-Bit Server VM
Default Encoding: UTF-8
Language: en
Country: US
--></g></svg>