<?xml version="1.0" encoding="UTF-8" standalone="no"?><svg xmlns="http://www.w3.org/2000/svg" xmlns:xlink="http://www.w3.org/1999/xlink" contentScriptType="application/ecmascript" contentStyleType="text/css" height="255px" preserveAspectRatio="none" style="width:838px;height:255px;" version="1.1" viewBox="0 0 838 255" width="838px" zoomAndPan="magnify"><defs><filter height="300%" id="f18yehxwed2zfv" width="300%" x="-1" y="-1"><feGaussianBlur result="blurOut" stdDeviation="2.0"/><feColorMatrix in="blurOut" result="blurOut2" type="matrix" values="0 0 0 0 0 0 0 0 0 0 0 0 0 0 0 0 0 0 .4 0"/><feOffset dx="4.0" dy="4.0" in="blurOut2" result="blurOut3"/><feBlend in="SourceGraphic" in2="blurOut3" mode="normal"/></filter></defs><g><text fill="#000000" font-family="sans-serif" font-size="18" lengthAdjust="spacingAndGlyphs" textLength="189" x="315.6856" y="16.708">Journal Namespaces</text><!--MD5=[285121e4a0245909b74264891e275599]
cluster default--><path d="M31.3744,38.9463 C36.1377,31.1203 41.3646,29.6717 47.3514,37.7145 C52.0082,31.0037 56.6448,31.2584 61.0201,38.0006 C65.2459,29.8805 72.1636,29.8688 77.0652,37.3036 C80.9135,29.0703 88.2078,30.0847 92.1873,37.1742 C95.8117,28.9917 102.5322,30.4693 107.1045,36.1545 C111.8517,29.4068 119.5278,29.576 123.2409,37.307 C127.4821,30.1226 133.578,28.6632 138.9864,36.0453 C143.8011,28.9377 149.6617,28.6115 153.9708,36.5489 C159.7018,29.3847 166.4804,29.9702 171.0578,37.8583 C174.8353,31.8573 180.9069,30.8938 184.8223,37.7102 C189.3368,31.7107 196.027,31.8062 199.1649,39.1859 C204.0226,31.7567 209.2498,31.2803 215.004,38.196 C220.6959,29.0043 227.6362,30.7529 232.4542,39.0671 C242.302,30.4037 248.2706,33.1058 252.3713,44.7137 C253.6934,43.9447 254.736,44.6836 254.811,46.1036 C264.2328,50.6533 263.0273,56.7099 256.316,62.7208 C264.5562,68.0436 265.4969,75.2826 256.9261,81.1616 C265.558,85.5619 263.7644,91.9755 257.4842,96.9044 C267.5733,102.6179 266.6799,108.9479 258.5369,115.6835 C266.3996,118.7059 266.4253,125.6369 259.8395,129.9761 C269.5674,137.4613 265.9536,145.0323 256.8829,149.6996 C263.497,153.1087 265.0793,159.0748 258.5385,164.0062 C265.0349,171.5222 264.5257,178.021 254.8417,182.2602 C263.8566,188.5901 262.1156,194.0249 254.0762,199.6019 C263.5014,210.9066 257.8914,219.0484 245.3713,221.7137 C246.2862,221.9389 246.6645,222.671 245.9546,223.444 C242.7177,229.7176 236.0576,230.3894 231.6143,224.9167 C227.4111,232.9568 219.6381,233.5666 215.0921,225.2632 C212.3855,231.8128 206.7914,234.2562 201.4094,228.1572 C197.8798,235.0716 191.6911,236.2788 186.1367,230.6159 C181.1892,239.5959 175.5125,238.8716 170.0723,231.088 C166.2474,238.0563 161.5581,240.0996 155.7821,233.0815 C150.6537,241.9338 145.4071,243.0241 138.6949,234.6527 C134.1336,241.9523 127.4785,240.7253 124.1623,233.4142 C118.4172,241.5137 113.1303,241.3585 107.5802,233.2152 C102.8362,238.8828 96.0608,238.0896 93.0486,231.2097 C86.3006,238.7156 80.8911,235.852 77.2352,228.0215 C72.3989,233.8391 66.708,233.4317 63.2369,226.5201 C57.3085,233.8079 51.7935,233.8689 46.0787,226.274 C34.958,233.8595 22.9882,228.6689 22.3713,214.7137 C23.101,214.0955 23.7118,214.2842 24.0487,215.156 C15.2522,211.7421 13.9257,204.9882 21.6208,199.0832 C13.4686,193.9158 12.5185,188.0491 20.3707,181.7287 C10.6654,177.5223 9.6942,171.9665 17.2684,164.6258 C8.419,159.6329 10.5605,154.341 16.7357,148.8409 C8.313,144.8609 6.6468,137.1458 14.1583,130.8794 C6.8018,125.2414 6,117.0685 16.0901,113.3536 C10.0019,108.0317 11.1298,100.7866 18.2822,97.2691 C10.2015,91.9914 12.7765,85.4383 19.534,81.3256 C11.3875,75.0066 13.863,69.2501 21.1997,64.4604 C12.2982,51.7599 13.8758,42.9606 29.3713,37.7137 C30.613,37.1665 31.3162,37.57 31.3744,38.9463 " fill="#FFFFFF" filter="url(#f18yehxwed2zfv)" style="stroke: #000000; stroke-width: 1.5;"/><text fill="#000000" font-family="sans-serif" font-size="14" font-weight="bold" lengthAdjust="spacingAndGlyphs" textLength="59" x="107.8713" y="55.7089">default</text><!--MD5=[cf7e6b6199e29dd80ab8da263402265d]
cluster boomka--><path d="M371.1731,40.2518 C376.4711,29.6652 386.0487,29.2864 393.3441,37.9515 C400.9099,29.5493 406.7296,31.9505 411.6431,40.7697 C416.2584,30.3387 426.0284,29.3728 433.0703,38.0484 C439.5376,29.8863 448.0534,31.3812 452.8948,39.9723 C458.6812,28.6621 467.5828,29.5811 473.9369,39.4072 C479.1127,27.1788 490.2803,27.6711 496.2629,38.6304 C501.9959,29.6233 510.9891,28.2692 516.7853,38.5633 C523.3945,26.9531 532.1652,28.5417 538.4233,38.9091 C542.5357,29.3854 551.5932,26.9964 558.3552,36.0692 C563.892,28.1691 572.6068,28.8351 576.5411,37.7973 C582.9577,28.835 592.8499,29.0572 598.6885,38.4931 C604.2826,30.1541 612.5808,27.9344 618.3563,38.3023 C626.3945,27.1372 635.2746,31.2935 640.6445,41.1337 C649.4041,30.0216 661.2002,30.0376 666.3713,44.7137 C668.3607,44.4748 669.0154,46.057 668.1862,47.5941 C679.2537,51.1436 678.3722,59.742 671.6651,66.5531 C684.9968,70.4679 683.428,81.539 675.3985,89.0057 C684.5991,96.0495 687.8074,103.1369 676.3386,111.0618 C687.0035,115.7529 687.6407,123.743 679.6987,131.494 C691.4045,138.4588 691.8095,148.2823 679.3703,154.9085 C686.5429,162.3852 684.9933,169.4949 676.0658,174.2161 C684.9448,184.4605 683.0688,192.2522 670.3937,197.1705 C680.3987,209.0715 672.3047,220.1146 659.3713,221.7137 C660.214,220.6045 661.2596,220.3243 662.0567,221.7619 C655.3467,231.4722 648.8277,234.5961 640.0184,224.0453 C634.4357,234.8938 625.7547,234.0745 619.8689,224.3421 C614.0081,236.4106 605.0625,234.7154 598.3345,225.2076 C594.4039,235.6221 585.5714,233.9404 579.981,226.9588 C572.2346,236.7012 564.8373,233.5085 559.3874,224.4441 C553.747,236.0175 543.3737,235.7142 537.4046,224.765 C531.946,233.5208 521.886,235.906 516.1887,225.0229 C509.5076,235.2636 502.8666,235.5052 494.6119,226.8166 C486.8645,236.1201 479.3855,234.6674 473.4077,224.8539 C468.2857,235.8112 459.8752,236.0015 452.9843,226.6312 C446.1203,237.1462 438.2152,236.7116 431.7663,226.2122 C424.9629,233.4558 418.7583,231.524 414.3094,223.5171 C408.135,232.3935 400.4328,233.6155 393.9193,223.8888 C380.9157,238.1026 365.9543,232.8922 362.3713,214.7137 C364.5467,213.4106 366.1871,214.6279 365.8876,217.0498 C354.7052,211.974 354.0011,202.6038 362.0309,194.2746 C350.3097,187.2483 350.948,180.0808 361.8316,172.8444 C351.6733,167.2988 352.0397,160.7285 359.1401,152.8586 C349.2297,147.1158 349.8375,138.6419 358.3257,132.1746 C347.2397,125.3201 349.076,117.2413 358.5499,110.6005 C350.8338,103.9454 349.1277,96.1252 360.0699,90.9105 C351.2062,81.5154 352.3826,73.5502 363.6804,67.2289 C352.5643,56.5421 355.0131,43.4888 369.3713,37.7137 C371.1812,37.5575 371.6961,38.7517 371.1731,40.2518 " fill="#FFFFFF" filter="url(#f18yehxwed2zfv)" style="stroke: #000000; stroke-width: 1.5;"/><text fill="#000000" font-family="sans-serif" font-size="14" font-weight="bold" lengthAdjust="spacingAndGlyphs" textLength="64" x="482.3713" y="55.7089">boomka</text><!--MD5=[0d2b1f0c7a6076baaf70fc9dcb6f6467]
entity /etc/systemd/journald.conf--><rect fill="#D3D3D3" filter="url(#f18yehxwed2zfv)" height="36.2969" style="stroke: #000000; stroke-width: 1.5;" width="214" x="30.3713" y="177.7137"/><text fill="#000000" font-family="sans-serif" font-size="14" lengthAdjust="spacingAndGlyphs" textLength="194" x="40.3713" y="200.7089">/etc/systemd/journald.conf</text><!--MD5=[4403adee287c2c8e52f7f16132878b19]
entity journald--><rect fill="#FEFECE" filter="url(#f18yehxwed2zfv)" height="36.2969" style="stroke: #000000; stroke-width: 1.5;" width="77" x="122.8713" y="64.7137"/><text fill="#000000" font-family="sans-serif" font-size="14" lengthAdjust="spacingAndGlyphs" textLength="57" x="132.8713" y="87.7089">journald</text><!--MD5=[de395f3da36a3e2e7ea6180e67888028]
entity /etc/systemd/journald@boomka.conf--><rect fill="#D3D3D3" filter="url(#f18yehxwed2zfv)" height="36.2969" style="stroke: #000000; stroke-width: 1.5;" width="287" x="370.8713" y="177.7137"/><text fill="#000000" font-family="sans-serif" font-size="14" lengthAdjust="spacingAndGlyphs" textLength="267" x="380.8713" y="200.7089">/etc/systemd/journald@boomka.conf</text><!--MD5=[7b9172189640accefe0d2bb1fbb1b8db]
entity journald@.boomka--><rect fill="#FEFECE" filter="url(#f18yehxwed2zfv)" height="36.2969" style="stroke: #000000; stroke-width: 1.5;" width="155" x="436.8713" y="64.7137"/><text fill="#000000" font-family="sans-serif" font-size="14" lengthAdjust="spacingAndGlyphs" textLength="135" x="446.8713" y="87.7089">journald@.boomka</text><!--MD5=[4a65e84059005d12693a083370a06717]
entity client--><rect fill="#FEFECE" filter="url(#f18yehxwed2zfv)" height="36.2969" style="stroke: #000000; stroke-width: 1.5;" width="61" x="276.8713" y="64.7137"/><text fill="#000000" font-family="sans-serif" font-size="14" lengthAdjust="spacingAndGlyphs" textLength="41" x="286.8713" y="87.7089">client</text><path d="M690.3713,70.2137 L690.3713,78.7137 L592.0513,82.7137 L690.3713,86.7137 L690.3713,95.3465 A0,0 0 0 0 690.3713,95.3465 L826.3713,95.3465 A0,0 0 0 0 826.3713,95.3465 L826.3713,80.2137 L816.3713,70.2137 L690.3713,70.2137 A0,0 0 0 0 690.3713,70.2137 " fill="#FBFB77" filter="url(#f18yehxwed2zfv)" style="stroke: #A80036; stroke-width: 1.0;"/><path d="M816.3713,70.2137 L816.3713,80.2137 L826.3713,80.2137 L816.3713,70.2137 " fill="#FBFB77" style="stroke: #A80036; stroke-width: 1.0;"/><text fill="#000000" font-family="sans-serif" font-size="13" lengthAdjust="spacingAndGlyphs" textLength="115" x="696.3713" y="87.2806">Separate daemon</text><!--MD5=[0412c4871d7514bfbc13bdff390e958b]
reverse link journald to /etc/systemd/journald.conf--><path d="M156.5123,106.1867 C151.9563,127.2597 145.2403,158.3179 141.0953,177.4917 " fill="none" id="journald-backto-/etc/systemd/journald.conf" style="stroke: #A80036; stroke-width: 1.0; stroke-dasharray: 7.0,7.0;"/><polygon fill="#A80036" points="157.6213,101.0577,151.8089,109.0086,156.5642,105.9447,159.6281,110.7,157.6213,101.0577" style="stroke: #A80036; stroke-width: 1.0;"/><text fill="#000000" font-family="sans-serif" font-size="13" lengthAdjust="spacingAndGlyphs" textLength="60" x="152.3713" y="143.7806">configure</text><!--MD5=[e0029b0c337d3e852bcb29ed483a88a8]
reverse link journald@.boomka to /etc/systemd/journald@boomka.conf--><path d="M514.3713,106.1867 C514.3713,127.2597 514.3713,158.3179 514.3713,177.4917 " fill="none" id="journald@.boomka-backto-/etc/systemd/journald@boomka.conf" style="stroke: #A80036; stroke-width: 1.0; stroke-dasharray: 7.0,7.0;"/><polygon fill="#A80036" points="514.3713,101.0577,510.3713,110.0577,514.3713,106.0577,518.3713,110.0577,514.3713,101.0577" style="stroke: #A80036; stroke-width: 1.0;"/><text fill="#000000" font-family="sans-serif" font-size="13" lengthAdjust="spacingAndGlyphs" textLength="60" x="515.3713" y="143.7806">configure</text><!--MD5=[22736c740a798ecf8b5e6e0826ffb887]
reverse link journald to client--><path d="M205.2633,82.7137 C228.3373,82.7137 256.0503,82.7137 276.7793,82.7137 " fill="none" id="journald-backto-client" style="stroke: #A80036; stroke-width: 1.0;"/><polygon fill="#A80036" points="200.1133,82.7137,209.1133,86.7137,205.1133,82.7137,209.1133,78.7137,200.1133,82.7137" style="stroke: #A80036; stroke-width: 1.0;"/><text fill="#000000" font-family="sans-serif" font-size="13" lengthAdjust="spacingAndGlyphs" textLength="32" x="222.3713" y="75.7806">write</text><!--MD5=[37c98a64d82c19476eec859594c9e08d]
link client to journald@.boomka--><path d="M337.9153,82.7137 C362.5743,82.7137 398.4763,82.7137 431.4673,82.7137 " fill="none" id="client-to-journald@.boomka" style="stroke: #A80036; stroke-width: 1.0;"/><polygon fill="#A80036" points="436.7353,82.7137,427.7353,78.7137,431.7353,82.7137,427.7353,86.7137,436.7353,82.7137" style="stroke: #A80036; stroke-width: 1.0;"/><text fill="#000000" font-family="sans-serif" font-size="13" lengthAdjust="spacingAndGlyphs" textLength="32" x="371.3713" y="75.7806">write</text><!--MD5=[b4fbbeff16864e3445a948cadbebc685]
@startuml
skinparam componentStyle rectangle

title Journal Namespaces

cloud "default" {
    [/etc/systemd/journald.conf] #lightgrey
    [/etc/systemd/journald.conf] .up.> [journald] : configure
}

cloud "boomka" {
    [/etc/systemd/journald@boomka.conf] #lightgrey
    [/etc/systemd/journald@boomka.conf] .up.> [journald@.boomka] : configure
}

[client] -left-> [journald] : write
[client] -right-> [journald@.boomka] : write

note right of "journald@.boomka" : Separate daemon
@enduml

PlantUML version 1.2020.17beta5(Unknown compile time)
(GPL source distribution)
Java Runtime: Java(TM) SE Runtime Environment
JVM: Java HotSpot(TM) 64-Bit Server VM
Default Encoding: UTF-8
Language: en
Country: US
--></g></svg>