<?xml version="1.0" encoding="UTF-8" standalone="no"?><svg xmlns="http://www.w3.org/2000/svg" xmlns:xlink="http://www.w3.org/1999/xlink" contentScriptType="application/ecmascript" contentStyleType="text/css" height="310px" preserveAspectRatio="none" style="width:491px;height:310px;" version="1.1" viewBox="0 0 491 310" width="491px" zoomAndPan="magnify"><defs><filter height="300%" id="f1vzdc9dfbmo84" width="300%" x="-1" y="-1"><feGaussianBlur result="blurOut" stdDeviation="2.0"/><feColorMatrix in="blurOut" result="blurOut2" type="matrix" values="0 0 0 0 0 0 0 0 0 0 0 0 0 0 0 0 0 0 .4 0"/><feOffset dx="4.0" dy="4.0" in="blurOut2" result="blurOut3"/><feBlend in="SourceGraphic" in2="blurOut3" mode="normal"/></filter></defs><g><text fill="#000000" font-family="sans-serif" font-size="18" lengthAdjust="spacingAndGlyphs" textLength="145" x="166.5" y="16.708">Journal Sources</text><polygon fill="#FFFFFF" filter="url(#f1vzdc9dfbmo84)" points="16,36.9531,26,26.9531,474,26.9531,474,293.9531,464,303.9531,16,303.9531,16,36.9531" style="stroke: #000000; stroke-width: 1.5;"/><line style="stroke: #000000; stroke-width: 1.5;" x1="464" x2="474" y1="36.9531" y2="26.9531"/><line style="stroke: #000000; stroke-width: 1.5;" x1="16" x2="464" y1="36.9531" y2="36.9531"/><line style="stroke: #000000; stroke-width: 1.5;" x1="464" x2="464" y1="36.9531" y2="303.9531"/><!--MD5=[8d512fb0e081a1625bfcf87e7829bd4b]
entity Systemd Unit\nSTDOUT/STDERR--><rect fill="#FEFECE" filter="url(#f1vzdc9dfbmo84)" height="52.5938" style="stroke: #000000; stroke-width: 1.5;" width="141" x="316.5" y="42.9531"/><text fill="#000000" font-family="sans-serif" font-size="14" lengthAdjust="spacingAndGlyphs" textLength="96" x="326.5" y="65.9482">Systemd Unit</text><text fill="#000000" font-family="sans-serif" font-size="14" lengthAdjust="spacingAndGlyphs" textLength="121" x="326.5" y="82.2451">STDOUT/STDERR</text><!--MD5=[4403adee287c2c8e52f7f16132878b19]
entity journald--><rect fill="#FEFECE" filter="url(#f1vzdc9dfbmo84)" height="36.2969" style="stroke: #000000; stroke-width: 1.5;" width="77" x="263.5" y="251.9531"/><text fill="#000000" font-family="sans-serif" font-size="14" lengthAdjust="spacingAndGlyphs" textLength="57" x="273.5" y="274.9482">journald</text><!--MD5=[e5b7da8fa23ec8cac7d321a34f6e9ee1]
entity Application--><rect fill="#FEFECE" filter="url(#f1vzdc9dfbmo84)" height="36.2969" style="stroke: #000000; stroke-width: 1.5;" width="103" x="176.5" y="51.4531"/><text fill="#000000" font-family="sans-serif" font-size="14" lengthAdjust="spacingAndGlyphs" textLength="83" x="186.5" y="74.4482">Application</text><!--MD5=[771209bb139c8fc5f8e1d1da86c785d4]
entity sd_journal_print(3)--><rect fill="#FEFECE" filter="url(#f1vzdc9dfbmo84)" height="36.2969" style="stroke: #000000; stroke-width: 1.5;" width="153" x="149.5" y="155.9531"/><text fill="#000000" font-family="sans-serif" font-size="14" lengthAdjust="spacingAndGlyphs" textLength="133" x="159.5" y="178.9482">sd_journal_print(3)</text><!--MD5=[4d6e98be61eafd54b8860653b44fd354]
entity syslog(3)--><rect fill="#FEFECE" filter="url(#f1vzdc9dfbmo84)" height="36.2969" style="stroke: #000000; stroke-width: 1.5;" width="83" x="337.5" y="155.9531"/><text fill="#000000" font-family="sans-serif" font-size="14" lengthAdjust="spacingAndGlyphs" textLength="63" x="347.5" y="178.9482">syslog(3)</text><!--MD5=[cb798c5dd5bb639090b009f755d03b00]
entity Kernel--><rect fill="#FEFECE" filter="url(#f1vzdc9dfbmo84)" height="36.2969" style="stroke: #000000; stroke-width: 1.5;" width="67" x="39.5" y="51.4531"/><text fill="#000000" font-family="sans-serif" font-size="14" lengthAdjust="spacingAndGlyphs" textLength="47" x="49.5" y="74.4482">Kernel</text><!--MD5=[5bf268642c4a653b222021525b445916]
entity syslog(2)--><rect fill="#FEFECE" filter="url(#f1vzdc9dfbmo84)" height="36.2969" style="stroke: #000000; stroke-width: 1.5;" width="82" x="32" y="155.9531"/><text fill="#000000" font-family="sans-serif" font-size="14" lengthAdjust="spacingAndGlyphs" textLength="62" x="42" y="178.9482">syslog(2)</text><!--MD5=[a240f0ca33b2bf417cdcb9e6e506482c]
link Systemd Unit\nSTDOUT/STDERR to journald--><path d="M411.308,96.0311 C432.209,121.2701 456.319,160.5291 438,191.9531 C418.284,225.7732 377.592,245.9299 345.831,257.0818 " fill="none" id="Systemd Unit\nSTDOUT/STDERR-to-journald" style="stroke: #A80036; stroke-width: 1.0;"/><polygon fill="#A80036" points="340.815,258.795,350.6247,259.672,345.5467,257.1793,348.0395,252.1013,340.815,258.795" style="stroke: #A80036; stroke-width: 1.0;"/><!--MD5=[f96c492250536bb19748efccbaf25794]
link Application to sd_journal_print(3)--><path d="M227.661,87.8411 C227.323,105.1741 226.802,131.8601 226.434,150.7231 " fill="none" id="Application-to-sd_journal_print(3)" style="stroke: #A80036; stroke-width: 1.0;"/><polygon fill="#A80036" points="226.334,155.8221,230.5081,146.9015,226.4311,150.8231,222.5096,146.7461,226.334,155.8221" style="stroke: #A80036; stroke-width: 1.0;"/><!--MD5=[847364d542092d7cc6e43f2504ff1f2f]
link Application to syslog(3)--><path d="M253.274,87.6091 C279.812,105.6231 321.502,133.9231 349.52,152.9421 " fill="none" id="Application-to-syslog(3)" style="stroke: #A80036; stroke-width: 1.0;"/><polygon fill="#A80036" points="353.895,155.9121,348.6968,147.5468,349.7586,153.1031,344.2023,154.165,353.895,155.9121" style="stroke: #A80036; stroke-width: 1.0;"/><!--MD5=[51bb1bad05633777e67254e1420f4846]
link sd_journal_print(3) to journald--><path d="M239.94,192.1941 C252.581,207.8301 271.258,230.9297 284.818,247.702 " fill="none" id="sd_journal_print(3)-to-journald" style="stroke: #A80036; stroke-width: 1.0;"/><polygon fill="#A80036" points="288.149,251.8214,285.6014,242.3078,285.0055,247.9332,279.3801,247.3373,288.149,251.8214" style="stroke: #A80036; stroke-width: 1.0;"/><!--MD5=[65200891f6694d31cf9c0685459f0917]
link Kernel to syslog(2)--><path d="M73,87.8411 C73,105.1741 73,131.8601 73,150.7231 " fill="none" id="Kernel-to-syslog(2)" style="stroke: #A80036; stroke-width: 1.0;"/><polygon fill="#A80036" points="73,155.8221,77,146.8221,73,150.8221,69,146.8221,73,155.8221" style="stroke: #A80036; stroke-width: 1.0;"/><!--MD5=[9dd912738261718d532b83798c397d73]
link syslog(2) to journald--><path d="M114.205,191.8671 C154.998,208.6121 217.205,234.1464 258.71,251.1833 " fill="none" id="syslog(2)-to-journald" style="stroke: #A80036; stroke-width: 1.0;"/><polygon fill="#A80036" points="263.414,253.1142,256.6069,245.9964,258.7885,251.2157,253.5692,253.3973,263.414,253.1142" style="stroke: #A80036; stroke-width: 1.0;"/><!--MD5=[33953e3d5c9155f67a9bc4365fbf8fd3]
link syslog(3) to journald--><path d="M364.877,192.1941 C352.069,207.8301 333.147,230.9297 319.408,247.702 " fill="none" id="syslog(3)-to-journald" style="stroke: #A80036; stroke-width: 1.0;"/><polygon fill="#A80036" points="316.033,251.8214,324.8302,247.3932,319.2011,247.9532,318.6411,242.3242,316.033,251.8214" style="stroke: #A80036; stroke-width: 1.0;"/><!--MD5=[2023ce430d54ec89ed95ef6281099079]
@startuml
skinparam componentStyle rectangle

title Journal Sources

node {
    [Systemd Unit\nSTDOUT/STDERR] -down- -> [journald]
    [Application] -down-> [sd_journal_print(3)]
    [Application] -down-> [syslog(3)]
    [sd_journal_print(3)] -down-> [journald]
    [Kernel] -down-> [syslog(2)]
    [syslog(2)] -down-> [journald]
    [syslog(3)] -down-> [journald]
}
@enduml

PlantUML version 1.2020.19beta2(Unknown compile time)
(GPL source distribution)
Java Runtime: Java(TM) SE Runtime Environment
JVM: Java HotSpot(TM) 64-Bit Server VM
Default Encoding: UTF-8
Language: en
Country: US
--></g></svg>