<?xml version="1.0" encoding="UTF-8" standalone="no"?><svg xmlns="http://www.w3.org/2000/svg" xmlns:xlink="http://www.w3.org/1999/xlink" contentScriptType="application/ecmascript" contentStyleType="text/css" height="575px" preserveAspectRatio="none" style="width:662px;height:575px;" version="1.1" viewBox="0 0 662 575" width="662px" zoomAndPan="magnify"><defs><filter height="300%" id="f9afpzdmzsxce" width="300%" x="-1" y="-1"><feGaussianBlur result="blurOut" stdDeviation="2.0"/><feColorMatrix in="blurOut" result="blurOut2" type="matrix" values="0 0 0 0 0 0 0 0 0 0 0 0 0 0 0 0 0 0 .4 0"/><feOffset dx="4.0" dy="4.0" in="blurOut2" result="blurOut3"/><feBlend in="SourceGraphic" in2="blurOut3" mode="normal"/></filter></defs><g><text fill="#000000" font-family="sans-serif" font-size="18" lengthAdjust="spacingAndGlyphs" textLength="59" x="292.5" y="16.708">Syslog</text><!--MD5=[1ee4e84892f91abd0ea0ac9d54ebfb6a]
cluster Host A--><polygon fill="#FFFFFF" filter="url(#f9afpzdmzsxce)" points="16,36.9531,26,26.9531,640,26.9531,640,407.9531,630,417.9531,16,417.9531,16,36.9531" style="stroke: #000000; stroke-width: 1.5;"/><line style="stroke: #000000; stroke-width: 1.5;" x1="630" x2="640" y1="36.9531" y2="26.9531"/><line style="stroke: #000000; stroke-width: 1.5;" x1="16" x2="630" y1="36.9531" y2="36.9531"/><line style="stroke: #000000; stroke-width: 1.5;" x1="630" x2="630" y1="36.9531" y2="417.9531"/><text fill="#000000" font-family="sans-serif" font-size="14" font-weight="bold" lengthAdjust="spacingAndGlyphs" textLength="54" x="297" y="52.9482">Host A</text><!--MD5=[e0c927e56041a723ac0f79dd5148f592]
cluster SumoLogic--><path d="M58.5095,481.2522 C62.2015,475.3594 66.759,474.1544 71.3583,480.2824 C75.6044,474.1969 79.5555,475.1532 83.8815,480.1925 C86.4825,473.2148 91.7358,473.3886 96.1816,478.2807 C100.517,471.8604 106.1249,471.2782 110.0198,478.7204 C113.1426,473.07 116.6266,473.4614 120.7583,477.6154 C123.829,470.8203 129.6238,469.9976 134.5574,475.5302 C137.2332,469.742 142.1623,470.3794 145.0712,475.3014 C149.7716,469.1426 154.6014,469.6774 157.6802,476.8366 C160.7032,469.6655 167.3508,470.4554 171.0885,476.0882 C175.0924,470.7594 179.5421,471.6066 183.0894,476.6181 C187.9365,470.4852 192.6667,471.9379 196.095,478.1168 C199.2643,472.4682 204.9589,472.4297 207.9358,478.3144 C212.6706,472.9202 218.3606,474.8379 220.4111,481.1702 C224.3071,475.8706 229.2284,476.3577 232.0718,482.2654 C237.3988,483.4491 238.5083,488.2271 235.4108,492.233 C242.5461,495.5094 242.4702,501.636 235.9889,505.5055 C242.5145,508.1581 243.3559,513.8174 237.2212,517.7447 C242.428,521.997 241.259,525.0596 236.0008,528.0757 C241.8647,532.3979 240.1412,535.7647 235.307,539.4335 C241.9173,544.7456 239.5503,550.7908 232.2897,553.023 C228.1309,558.5168 223.2458,557.236 220.5519,551.4928 C218.1408,558.8854 211.5982,558.368 207.5758,553.1507 C204.1943,559.6463 199.4952,558.9119 195.6372,553.6339 C192.0951,559.3193 186.7112,560.4077 182.3854,554.5322 C179.9456,560.9572 174.4999,560.7928 171.0129,555.5532 C167.0459,562.6918 162.1225,563.0203 157.7205,555.9604 C154.3841,560.8975 148.6288,560.4845 145.9043,555.2496 C142.2428,560.9673 138.4827,560.1475 134.5188,555.5845 C130.1573,561.1686 125.7206,562.0779 121.2426,555.714 C116.2548,561.317 112.5042,560.3088 109.603,553.7217 C105.9648,559.8954 101.916,560.0405 97.4991,554.5283 C92.484,559.1948 87.5884,558.8699 84.8736,552.0088 C80.7048,559.6731 75.2847,558.8599 70.6346,552.4974 C66.6785,558.2005 63.2284,558.0454 59.3504,552.4195 C53.6967,549.9786 51.673,544.3539 57.1499,539.9489 C51.7376,536.0985 51.7081,531.3868 56.9579,527.3735 C51.1619,524.9726 50.9041,521.2038 55.745,517.4967 C50.2515,513.8412 50.2212,508.5919 56.585,505.787 C49.9291,501.5374 50.1741,495.9221 57.0734,492.1582 C52.9342,488.3337 53.284,483.8436 58.5095,481.2522 " fill="#FFFFFF" filter="url(#f9afpzdmzsxce)" style="stroke: #000000; stroke-width: 1.5;"/><text fill="#000000" font-family="sans-serif" font-size="14" font-weight="bold" lengthAdjust="spacingAndGlyphs" textLength="88" x="101" y="497.9482">SumoLogic</text><!--MD5=[1ffdbd6cfe6faf1d98b56a5eddd0cd8b]
cluster Host B--><polygon fill="#FFFFFF" filter="url(#f9afpzdmzsxce)" points="264,476.9531,274,466.9531,434,466.9531,434,548.9531,424,558.9531,264,558.9531,264,476.9531" style="stroke: #000000; stroke-width: 1.5;"/><line style="stroke: #000000; stroke-width: 1.5;" x1="424" x2="434" y1="476.9531" y2="466.9531"/><line style="stroke: #000000; stroke-width: 1.5;" x1="264" x2="424" y1="476.9531" y2="476.9531"/><line style="stroke: #000000; stroke-width: 1.5;" x1="424" x2="424" y1="476.9531" y2="558.9531"/><text fill="#000000" font-family="sans-serif" font-size="14" font-weight="bold" lengthAdjust="spacingAndGlyphs" textLength="54" x="318" y="492.9482">Host B</text><!--MD5=[bb8b90b4e8fe891bab137fd04d180dcc]
cluster Loggy--><path d="M466.244,479.9889 C469.0264,474.1431 474.6373,473.8792 478.0046,479.3828 C480.4394,474.2918 485.7872,472.5653 489.4553,478.047 C493.9213,471.4291 499.4124,471.5751 502.692,479.1533 C504.3864,473.4516 508.6942,473.2509 512.2657,477.3126 C514.9606,471.1513 520.6695,470.2336 524.3553,476.3358 C527.512,470.6488 532.5494,471.3244 535.9666,476.0452 C539.4639,471.5933 543.4525,471.8686 546.5269,476.535 C550.0696,469.4769 556.3373,469.9243 560.1304,476.2811 C563.9978,472.1964 569.2297,472.9888 570.4553,478.9865 C575.1373,473.9103 578.9056,473.9421 582.9593,479.7109 C586.1945,475.8901 590.9268,475.7738 592.8123,481.156 C596.2686,474.8229 601.1031,473.7408 605.4959,480.2295 C611.8648,482.386 612.071,487.7648 607.6237,491.8943 C614.2736,495.5405 614.1702,499.4444 608.9363,504.3436 C615.368,508.6898 615.5712,512.3875 608.8627,516.6552 C613.8723,520.232 613.3773,525.3663 608.223,528.389 C614.3728,532.841 613.8632,537.7116 606.78,540.5996 C610.701,544.4917 610.876,548.9665 604.958,551.1613 C602.2729,556.3996 598.0244,556.4129 594.4917,552.089 C590.8827,558.225 585.6332,557.8636 581.4087,552.8085 C578.3406,558.4598 573.6586,556.9736 570.7939,552.5933 C568.1598,559.3851 564.3801,560.2846 559.3545,554.8265 C555.5569,560.7492 551.6417,560.325 547.8261,554.8446 C544.7748,561.3637 539.963,561.1261 536.216,555.5102 C532.9615,560.5981 526.8589,560.9027 523.5957,555.5207 C519.697,559.8854 516.3507,558.9005 513.9714,553.9508 C510.1117,560.292 505.5869,559.7371 501.3816,554.3209 C497.4105,559.6715 493.1505,559.1791 489.568,553.8895 C485.6493,557.993 481.1422,558.9965 478.4819,552.5652 C474.348,557.5793 470.8101,557.0017 467.4586,551.727 C462.7115,548.7138 461.4287,544.4809 467.1264,541.1399 C460.6898,538.0829 460.3619,532.7146 465.9554,528.5396 C460.7629,524.5546 459.6975,520.3953 466.2287,516.6805 C460.1988,512.9641 461.7085,508.1981 466.8429,505.0725 C460.9365,502.26 461.2977,497.2903 466.215,493.8712 C458.9189,490.2079 459.4919,483.6228 466.244,479.9889 " fill="#FFFFFF" filter="url(#f9afpzdmzsxce)" style="stroke: #000000; stroke-width: 1.5;"/><text fill="#000000" font-family="sans-serif" font-size="14" font-weight="bold" lengthAdjust="spacingAndGlyphs" textLength="48" x="511" y="497.9482">Loggy</text><!--MD5=[e4225381f5989068811eb87c98ca5abf]
entity Utility--><rect fill="#FEFECE" filter="url(#f9afpzdmzsxce)" height="36.2969" style="stroke: #000000; stroke-width: 1.5;" width="63" x="466.5" y="66.9531"/><text fill="#000000" font-family="sans-serif" font-size="14" lengthAdjust="spacingAndGlyphs" textLength="43" x="476.5" y="89.9482">Utility</text><!--MD5=[fed5c8a8aeb6e7d47260a8cbcdf67bc8]
entity Local Syslogd--><rect fill="#FEFECE" filter="url(#f9afpzdmzsxce)" height="36.2969" style="stroke: #000000; stroke-width: 1.5;" width="116" x="291" y="272.9531"/><text fill="#000000" font-family="sans-serif" font-size="14" lengthAdjust="spacingAndGlyphs" textLength="96" x="301" y="295.9482">Local Syslogd</text><!--MD5=[17737e49c286898813382e12d6080e03]
entity Service--><rect fill="#FEFECE" filter="url(#f9afpzdmzsxce)" height="36.2969" style="stroke: #000000; stroke-width: 1.5;" width="73" x="358.5" y="66.9531"/><text fill="#000000" font-family="sans-serif" font-size="14" lengthAdjust="spacingAndGlyphs" textLength="53" x="368.5" y="89.9482">Service</text><!--MD5=[33c0991a8851763f97139b7ade4f6f84]
entity OS--><rect fill="#FEFECE" filter="url(#f9afpzdmzsxce)" height="36.2969" style="stroke: #000000; stroke-width: 1.5;" width="40" x="283" y="66.9531"/><text fill="#000000" font-family="sans-serif" font-size="14" lengthAdjust="spacingAndGlyphs" textLength="20" x="293" y="89.9482">OS</text><!--MD5=[e5b7da8fa23ec8cac7d321a34f6e9ee1]
entity Application--><rect fill="#FEFECE" filter="url(#f9afpzdmzsxce)" height="36.2969" style="stroke: #000000; stroke-width: 1.5;" width="103" x="144.5" y="66.9531"/><text fill="#000000" font-family="sans-serif" font-size="14" lengthAdjust="spacingAndGlyphs" textLength="83" x="154.5" y="89.9482">Application</text><path d="M32,179.9531 L32,401.8125 A0,0 0 0 0 32,401.8125 L256,401.8125 A0,0 0 0 0 256,401.8125 L256,294.9531 L290.943,290.9531 L256,286.9531 L256,189.9531 L246,179.9531 L32,179.9531 A0,0 0 0 0 32,179.9531 " fill="#FBFB77" filter="url(#f9afpzdmzsxce)" style="stroke: #A80036; stroke-width: 1.0;"/><path d="M246,179.9531 L246,189.9531 L256,189.9531 L246,179.9531 " fill="#FBFB77" style="stroke: #A80036; stroke-width: 1.0;"/><text fill="#000000" font-family="sans-serif" font-size="13" lengthAdjust="spacingAndGlyphs" textLength="159" x="38" y="197.02">Listen on /dev/log socket</text><text fill="#000000" font-family="sans-serif" font-size="13" lengthAdjust="spacingAndGlyphs" textLength="203" x="38" y="212.1528">at 514 or 6514 (encrypted) port</text><text fill="#000000" font-family="sans-serif" font-size="13" lengthAdjust="spacingAndGlyphs" textLength="0" x="42" y="227.2856"/><text fill="#000000" font-family="sans-serif" font-size="13" lengthAdjust="spacingAndGlyphs" textLength="67" x="38" y="242.4185">Transport:</text><ellipse cx="43.5" cy="253.1172" fill="#000000" rx="2.5" ry="2.5" style="stroke: #000000; stroke-width: 0.0;"/><text fill="#000000" font-family="sans-serif" font-size="13" lengthAdjust="spacingAndGlyphs" textLength="25" x="51" y="257.5513">TCP</text><ellipse cx="43.5" cy="268.25" fill="#000000" rx="2.5" ry="2.5" style="stroke: #000000; stroke-width: 0.0;"/><text fill="#000000" font-family="sans-serif" font-size="13" lengthAdjust="spacingAndGlyphs" textLength="27" x="51" y="272.6841">UDP</text><text fill="#000000" font-family="sans-serif" font-size="13" lengthAdjust="spacingAndGlyphs" textLength="0" x="42" y="287.8169"/><text fill="#000000" font-family="sans-serif" font-size="13" lengthAdjust="spacingAndGlyphs" textLength="131" x="38" y="302.9497">Protocol (plain text):</text><ellipse cx="43.5" cy="313.6484" fill="#000000" rx="2.5" ry="2.5" style="stroke: #000000; stroke-width: 0.0;"/><text fill="#000000" font-family="sans-serif" font-size="13" lengthAdjust="spacingAndGlyphs" textLength="53" x="51" y="318.0825">Headers</text><ellipse cx="43.5" cy="328.7813" fill="#000000" rx="2.5" ry="2.5" style="stroke: #000000; stroke-width: 0.0;"/><text fill="#000000" font-family="sans-serif" font-size="13" lengthAdjust="spacingAndGlyphs" textLength="56" x="51" y="333.2153">Message</text><text fill="#000000" font-family="sans-serif" font-size="13" lengthAdjust="spacingAndGlyphs" textLength="0" x="42" y="348.3481"/><text fill="#000000" font-family="sans-serif" font-size="13" lengthAdjust="spacingAndGlyphs" textLength="113" x="38" y="363.481">Implementations:</text><ellipse cx="43.5" cy="374.1797" fill="#000000" rx="2.5" ry="2.5" style="stroke: #000000; stroke-width: 0.0;"/><text fill="#000000" font-family="sans-serif" font-size="13" lengthAdjust="spacingAndGlyphs" textLength="54" x="51" y="378.6138">rsyslogd</text><ellipse cx="43.5" cy="389.3125" fill="#000000" rx="2.5" ry="2.5" style="stroke: #000000; stroke-width: 0.0;"/><text fill="#000000" font-family="sans-serif" font-size="13" lengthAdjust="spacingAndGlyphs" textLength="62" x="51" y="393.7466">syslog-ng</text><!--MD5=[cc3dc689c840eaab30c910dae0decb90]
entity /var/log/messages--><rect fill="#FEFECE" filter="url(#f9afpzdmzsxce)" height="36.2969" style="stroke: #000000; stroke-width: 1.5;" width="149" x="474.5" y="272.9531"/><text fill="#000000" font-family="sans-serif" font-size="14" lengthAdjust="spacingAndGlyphs" textLength="129" x="484.5" y="295.9482">/var/log/messages</text><!--MD5=[00830dcac4a659448d7456b2d8ca1543]
entity SumoLogic Syslogd--><rect fill="#FEFECE" filter="url(#f9afpzdmzsxce)" height="36.2969" style="stroke: #000000; stroke-width: 1.5;" width="157" x="66.5" y="506.9531"/><text fill="#000000" font-family="sans-serif" font-size="14" lengthAdjust="spacingAndGlyphs" textLength="137" x="76.5" y="529.9482">SumoLogic Syslogd</text><!--MD5=[b83f6d2e4b2fbb9a246f5dc49774cc63]
entity Remote Syslogd--><rect fill="#FEFECE" filter="url(#f9afpzdmzsxce)" height="36.2969" style="stroke: #000000; stroke-width: 1.5;" width="137" x="280.5" y="506.9531"/><text fill="#000000" font-family="sans-serif" font-size="14" lengthAdjust="spacingAndGlyphs" textLength="117" x="290.5" y="529.9482">Remote Syslogd</text><!--MD5=[cb4d09efb5e21808b09c65adf5d82499]
entity Loggy Syslogd--><rect fill="#FEFECE" filter="url(#f9afpzdmzsxce)" height="36.2969" style="stroke: #000000; stroke-width: 1.5;" width="122" x="474" y="506.9531"/><text fill="#000000" font-family="sans-serif" font-size="14" lengthAdjust="spacingAndGlyphs" textLength="102" x="484" y="529.9482">Loggy Syslogd</text><!--MD5=[2c73d657fc3a6f69be01e6e824038b5d]
link Utility to Local Syslogd--><path d="M485.553,102.9951 C458.492,140.0451 394.353,227.8601 364.626,268.5591 " fill="none" id="Utility-to-Local Syslogd" style="stroke: #A80036; stroke-width: 1.0;"/><polygon fill="#A80036" points="361.517,272.8161,370.0554,267.9074,364.466,268.7784,363.595,263.189,361.517,272.8161" style="stroke: #A80036; stroke-width: 1.0;"/><text fill="#000000" font-family="sans-serif" font-size="13" lengthAdjust="spacingAndGlyphs" textLength="59" x="462" y="146.02">syslog(3)</text><!--MD5=[b3e8d904de8d3e38b9cc308f594e2e54]
link Service to Local Syslogd--><path d="M391.157,102.9951 C382.854,139.8201 363.242,226.7951 353.992,267.8131 " fill="none" id="Service-to-Local Syslogd" style="stroke: #A80036; stroke-width: 1.0;"/><polygon fill="#A80036" points="352.864,272.8161,358.7461,264.9167,353.9641,267.9386,350.9422,263.1566,352.864,272.8161" style="stroke: #A80036; stroke-width: 1.0;"/><!--MD5=[dbbd984026144ab05560e976f20b374b]
link OS to Local Syslogd--><path d="M306.843,102.9951 C315.146,139.8201 334.758,226.7951 344.008,267.8131 " fill="none" id="OS-to-Local Syslogd" style="stroke: #A80036; stroke-width: 1.0;"/><polygon fill="#A80036" points="345.136,272.8161,347.0578,263.1566,344.0359,267.9386,339.2539,264.9167,345.136,272.8161" style="stroke: #A80036; stroke-width: 1.0;"/><!--MD5=[cd5ae028e0b1d6e0997b4b85d8c3660a]
link Application to Local Syslogd--><path d="M210.913,103.2811 C226.754,121.8871 252.315,152.4851 273,179.9531 C295.647,210.0261 320.103,246.1461 334.986,268.5801 " fill="none" id="Application-to-Local Syslogd" style="stroke: #A80036; stroke-width: 1.0;"/><polygon fill="#A80036" points="337.831,272.8781,336.1992,263.1654,335.0714,268.7087,329.5281,267.5808,337.831,272.8781" style="stroke: #A80036; stroke-width: 1.0;"/><!--MD5=[c5e1d8c4742efe6a5ad30e8b0b2461b1]
link Local Syslogd to /var/log/messages--><path d="M407.117,290.9531 C426.468,290.9531 448.372,290.9531 469.079,290.9531 " fill="none" id="Local Syslogd-to-/var/log/messages" style="stroke: #A80036; stroke-width: 1.0; stroke-dasharray: 7.0,7.0;"/><polygon fill="#A80036" points="474.315,290.9531,465.315,286.9531,469.315,290.9531,465.315,294.9531,474.315,290.9531" style="stroke: #A80036; stroke-width: 1.0;"/><text fill="#000000" font-family="sans-serif" font-size="13" lengthAdjust="spacingAndGlyphs" textLength="31" x="425.25" y="284.02">save</text><!--MD5=[4df59445f940b002ca8d9b49de5bb56e]
link Local Syslogd to SumoLogic Syslogd--><path d="M342.017,308.9841 C330.444,335.8561 305.325,388.8471 273,425.9531 C245.254,457.8031 205.734,486.1605 177.967,504.0735 " fill="none" id="Local Syslogd-to-SumoLogic Syslogd" style="stroke: #A80036; stroke-width: 1.0; stroke-dasharray: 7.0,7.0;"/><polygon fill="#A80036" points="173.615,506.8577,183.352,505.3775,177.8269,504.1634,179.041,498.6383,173.615,506.8577" style="stroke: #A80036; stroke-width: 1.0;"/><!--MD5=[faaf998010bada3ebedc557a416dcd17]
link Local Syslogd to Remote Syslogd--><path d="M349,309.0131 C349,350.3241 349,455.7191 349,501.8108 " fill="none" id="Local Syslogd-to-Remote Syslogd" style="stroke: #A80036; stroke-width: 1.0; stroke-dasharray: 7.0,7.0;"/><polygon fill="#A80036" points="349,506.8686,353,497.8686,349,501.8686,345,497.8686,349,506.8686" style="stroke: #A80036; stroke-width: 1.0;"/><text fill="#000000" font-family="sans-serif" font-size="13" lengthAdjust="spacingAndGlyphs" textLength="115" x="350" y="447.02">forward (optional)</text><!--MD5=[6b23b8427177041d5be5a47c17c1f912]
link Local Syslogd to Loggy Syslogd--><path d="M359.285,309.2751 C376.493,337.0271 413.541,391.7951 457,425.9531 C463.565,431.1131 467.654,428.5261 474,433.9531 C496.312,453.0331 514.028,482.1494 524.498,502.0641 " fill="none" id="Local Syslogd-to-Loggy Syslogd" style="stroke: #A80036; stroke-width: 1.0; stroke-dasharray: 7.0,7.0;"/><polygon fill="#A80036" points="526.875,506.6663,526.2981,496.8344,524.5801,502.2241,519.1905,500.5061,526.875,506.6663" style="stroke: #A80036; stroke-width: 1.0;"/><!--MD5=[f7b47b2aa78451fcc2b8c9c11fc0cd25]
@startuml
skinparam componentStyle rectangle

title Syslog

node "Host A" {
    [Utility] - -> [Local Syslogd] : syslog(3)
    [Service] - -> [Local Syslogd]
    [OS] - -> [Local Syslogd]
    [Application] - -> [Local Syslogd]
    note left of [Local Syslogd]
        Listen on /dev/log socket
        at 514 or 6514 (encrypted) port
        
        Transport:
        * TCP
        * UDP
        
        Protocol (plain text):
        * Headers
        * Message
        
        Implementations:
        * rsyslogd
        * syslog-ng
    end note
    [Local Syslogd] .> [/var/log/messages] : save
}

cloud "SumoLogic" {
    [Local Syslogd] ..> [SumoLogic Syslogd] 
}

node "Host B" {
    [Local Syslogd] ..> [Remote Syslogd] : forward (optional)
}

cloud "Loggy" {
    [Local Syslogd] ..> [Loggy Syslogd] 
}
@enduml

PlantUML version 1.2020.17beta5(Unknown compile time)
(GPL source distribution)
Java Runtime: Java(TM) SE Runtime Environment
JVM: Java HotSpot(TM) 64-Bit Server VM
Default Encoding: UTF-8
Language: en
Country: US
--></g></svg>